<svg width="38" height="46" viewBox="0 0 38 46" fill="none" xmlns="http://www.w3.org/2000/svg">
<path d="M12.1636 12.0175V21.8284L18.5229 25.6306L24.8823 21.8284V12.0175L18.5229 11.0687L12.1636 12.0175ZM21.905 14.8709C22.1435 15.1225 22.129 15.5178 21.8761 15.755L16.9909 20.3047L15.2927 19.1331C15.0036 18.9318 14.9386 18.5437 15.1337 18.2634C15.3288 17.9759 15.7263 17.9112 16.0081 18.1053L16.8681 18.7018L21.0089 14.8494C21.269 14.605 21.6665 14.6193 21.905 14.8709Z" fill="#1F56BA"/>
<path d="M18.5229 3.09058C10.039 3.09058 3.13037 9.96183 3.13037 18.4C3.13037 26.8381 10.039 33.7093 18.5229 33.7093C27.0069 33.7093 33.9155 26.8381 33.9155 18.4C33.9155 9.96183 27.0069 3.09058 18.5229 3.09058ZM26.1108 22.1878C26.1108 22.4106 26.0097 22.6118 25.8218 22.7268L18.8409 26.9028C18.7397 26.9603 18.6313 26.989 18.5229 26.989C18.4146 26.989 18.2989 26.9603 18.1978 26.9028L11.2241 22.7268C11.0362 22.6118 10.9351 22.4106 10.9351 22.1878V11.4784C10.9351 11.1693 11.1446 10.9034 11.4554 10.8603L18.4362 9.81808C18.5013 9.81089 18.5591 9.81089 18.6169 9.81808L25.5905 10.8603C25.9013 10.9034 26.1036 11.1693 26.1036 11.4784V22.1878H26.1108Z" fill="#1F56BA"/>
</svg>
