<svg width="40" height="40" viewBox="0 0 40 40" fill="none" xmlns="http://www.w3.org/2000/svg">
<g filter="url(#filter0_d)">
<path d="M35.4253 16.6884C35.4253 7.83261 28.1484 0.669822 19.1515 0.669821C10.1545 0.669821 2.8776 7.83261 2.8776 16.6884C2.8776 25.5442 10.1545 32.707 19.1514 32.707C28.1484 32.707 35.4253 25.5442 35.4253 16.6884Z" fill="url(#paint0_linear)"/>
</g>
<path d="M19.1515 9.78607C21.7315 9.78607 22.0292 9.78607 23.0546 9.85118C24.0138 9.88374 24.51 10.0465 24.8407 10.1768C25.3038 10.3396 25.6015 10.5675 25.9653 10.893C26.2961 11.2186 26.5277 11.5442 26.693 12C26.8253 12.3256 26.9907 12.8465 27.0238 13.7582C27.0569 14.7675 27.09 15.0605 27.09 17.6C27.09 20.1396 27.09 20.4326 27.0238 21.4419C26.9907 22.3861 26.8253 22.8744 26.693 23.2C26.5277 23.6558 26.2961 23.9489 25.9653 24.307C25.6346 24.6326 25.3038 24.8605 24.8407 25.0233C24.51 25.1535 23.9807 25.3163 23.0546 25.3489C22.0292 25.3814 21.7315 25.414 19.1515 25.414C16.5715 25.414 16.2738 25.414 15.2484 25.3489C14.2892 25.3163 13.793 25.1535 13.4623 25.0233C12.9992 24.8605 12.7015 24.6326 12.3377 24.307C11.9738 23.9814 11.7753 23.6558 11.61 23.2C11.4777 22.8744 11.3123 22.3535 11.2792 21.4419C11.2461 20.4326 11.213 20.1396 11.213 17.6C11.213 15.0605 11.213 14.7675 11.2792 13.7582C11.3123 12.814 11.4777 12.3256 11.61 12C11.7753 11.5442 12.0069 11.2512 12.3377 10.893C12.6684 10.5675 12.9992 10.3396 13.4623 10.1768C13.793 10.0465 14.3223 9.88374 15.2484 9.85118C16.2738 9.78607 16.5715 9.78607 19.1515 9.78607ZM19.1515 8.06049C16.5384 8.06049 16.2077 8.06049 15.1492 8.1256C14.1238 8.15816 13.4292 8.32095 12.8007 8.58142C12.1723 8.80932 11.61 9.13491 11.0807 9.68839C10.5846 10.2093 10.2538 10.7303 9.98919 11.3489C9.75765 11.9675 9.59227 12.6512 9.52611 13.6605C9.49304 14.6698 9.45996 14.9954 9.45996 17.6C9.45996 20.2047 9.45996 20.4977 9.52611 21.5396C9.55919 22.5489 9.72458 23.2326 9.98919 23.8512C10.2207 24.4698 10.5515 25.0233 11.1138 25.5442C11.643 26.0651 12.2053 26.3907 12.8338 26.6512C13.4623 26.8791 14.1569 27.0419 15.1823 27.107C16.2077 27.1396 16.5384 27.1721 19.1846 27.1721C21.8307 27.1721 22.1284 27.1721 23.1869 27.107C24.2123 27.0744 24.9069 26.9116 25.5353 26.6512C26.1638 26.4233 26.7261 26.0977 27.2553 25.5442C27.7846 25.0233 28.1153 24.4698 28.38 23.8512C28.6115 23.2326 28.7769 22.5489 28.843 21.5396C28.8761 20.5303 28.9092 20.2047 28.9092 17.6C28.9092 14.9954 28.9092 14.7023 28.843 13.6605C28.81 12.6512 28.6446 11.9675 28.38 11.3489C28.1484 10.7303 27.8177 10.1768 27.2553 9.65583C26.7261 9.1349 26.1638 8.80932 25.5353 8.54886C24.9069 8.32095 24.2123 8.15816 23.1869 8.09304C22.0953 8.09304 21.7977 8.06049 19.1515 8.06049ZM19.1515 12.6837C16.4061 12.6837 14.19 14.8651 14.19 17.5675C14.19 20.2698 16.4061 22.4512 19.1515 22.4512C21.8969 22.4512 24.113 20.2698 24.113 17.5675C24.113 14.8651 21.8969 12.6837 19.1515 12.6837ZM19.1515 20.7582C17.3653 20.7582 15.943 19.3256 15.943 17.6C15.943 15.8744 17.3984 14.4419 19.1515 14.4419C20.9046 14.4419 22.36 15.8744 22.36 17.6C22.36 19.3256 20.9377 20.7582 19.1515 20.7582ZM25.4692 12.521C25.4692 13.1396 24.94 13.6605 24.3115 13.6605C23.683 13.6605 23.1538 13.1396 23.1538 12.521C23.1538 11.9023 23.683 11.3814 24.3115 11.3814C24.94 11.3814 25.4692 11.8698 25.4692 12.521Z" fill="white"/>
<defs>
<filter id="filter0_d" x="-1.12256" y="0.6698" width="40.5477" height="40.0372" filterUnits="userSpaceOnUse" color-interpolation-filters="sRGB">
<feFlood flood-opacity="0" result="BackgroundImageFix"/>
<feColorMatrix in="SourceAlpha" type="matrix" values="0 0 0 0 0 0 0 0 0 0 0 0 0 0 0 0 0 0 127 0"/>
<feOffset dy="4"/>
<feGaussianBlur stdDeviation="2"/>
<feColorMatrix type="matrix" values="0 0 0 0 0 0 0 0 0 0 0 0 0 0 0 0 0 0 0.25 0"/>
<feBlend mode="normal" in2="BackgroundImageFix" result="effect1_dropShadow"/>
<feBlend mode="normal" in="SourceGraphic" in2="effect1_dropShadow" result="shape"/>
</filter>
<linearGradient id="paint0_linear" x1="19.147" y1="32.7153" x2="19.147" y2="0.687241" gradientUnits="userSpaceOnUse">
<stop stop-color="#1F56BA"/>
<stop offset="1" stop-color="#1B4F9B"/>
</linearGradient>
</defs>
</svg>
