<svg width="115" height="55" viewBox="0 0 115 55" fill="none" xmlns="http://www.w3.org/2000/svg">
<g clip-path="url(#clip0)">
<path d="M48.8493 33.654H43.285L42.2354 36.4235H38.4348C38.559 36.1082 38.6708 35.8239 38.7888 35.5395C39.9004 32.906 41.012 30.2664 42.1237 27.6329C42.8627 25.8835 43.5893 24.134 44.3283 22.3845C44.4649 22.0631 44.409 22.0692 44.8065 22.0692C45.7069 22.0754 46.6136 22.0754 47.5141 22.0631C47.7687 22.0569 47.9053 22.1249 48.0047 22.3722C48.6009 23.8434 49.2095 25.3085 49.8243 26.7675C50.4577 28.2944 51.0974 29.8213 51.737 31.3482C52.4388 33.0235 53.1343 34.6988 53.836 36.3741C53.5566 36.4482 50.4577 36.4668 49.9485 36.3988L48.8493 33.654ZM46.1044 25.9515L44.291 30.8289C44.9865 30.8969 47.5513 30.8784 47.8681 30.798L46.1044 25.9515Z" fill="white"/>
<path d="M81.6204 22.094H91.3021V25.0427H85.0174V27.7133C86.9922 27.7319 88.9671 27.7133 90.9605 27.7257C91.0164 28.214 90.9792 28.6715 90.9916 29.129C90.9978 29.5802 90.9916 30.0253 90.9916 30.5199C90.4824 30.5446 89.9855 30.5261 89.4825 30.5322C88.9919 30.5322 88.4951 30.5322 88.0045 30.5322H85.005V33.4872H91.6933V36.3927C91.6685 36.4174 91.6561 36.4297 91.6499 36.4421C91.6375 36.4483 91.625 36.4607 91.6188 36.4607C88.3523 36.4668 85.0857 36.473 81.8192 36.473C81.7757 36.473 81.726 36.4668 81.6825 36.4607C81.6639 36.4483 81.6515 36.4297 81.6329 36.4174C81.6266 36.405 81.6142 36.3927 81.6142 36.3803C81.608 31.6883 81.608 26.99 81.6018 22.298C81.6018 22.2485 81.6142 22.1929 81.6204 22.094Z" fill="white"/>
<path d="M66.7965 23.7816L64.4242 26.1431C64.3684 26.0937 64.2938 26.0257 64.2193 25.9515C63.6045 25.2838 62.8096 24.9933 61.934 24.9006C60.9403 24.8016 60.0026 25.0057 59.1704 25.5744C58.2203 26.2235 57.6738 27.1446 57.4564 28.2511C57.2453 29.3268 57.3384 30.39 57.829 31.3915C58.5556 32.8566 59.7604 33.5923 61.3937 33.6355C62.5798 33.6664 63.5797 33.2523 64.3684 32.3559C64.4056 32.3188 64.4429 32.2817 64.4863 32.2446C64.4926 32.2384 64.5112 32.2384 64.5609 32.2261L66.958 34.4701C66.8338 34.5999 66.722 34.7297 66.5978 34.8472C65.48 35.9105 64.1572 36.5657 62.6233 36.7635C61.2819 36.9366 59.9529 36.881 58.6612 36.4545C56.0591 35.5828 54.401 33.8148 53.7738 31.169C53.3391 29.3577 53.4757 27.5526 54.2892 25.8402C55.0903 24.1526 56.4069 23.0027 58.1333 22.3042C59.4809 21.7602 60.8844 21.6118 62.3128 21.7602C63.6542 21.8962 64.9273 22.2918 66.0265 23.114C66.3059 23.318 66.5543 23.5653 66.7965 23.7816Z" fill="white"/>
<path d="M80.3658 23.7816L77.9998 26.1369C77.9625 26.0998 77.9252 26.0689 77.888 26.0256C77.2049 25.2529 76.3106 24.9438 75.3045 24.8881C74.255 24.8325 73.3111 25.1045 72.4913 25.7845C71.7772 26.3656 71.2866 27.1754 71.1003 28.078C70.8022 29.4442 70.9388 30.7609 71.7337 31.9416C72.4851 33.0606 73.5781 33.5922 74.9195 33.6417C76.1988 33.6849 77.2607 33.2213 78.1053 32.1889L80.5335 34.4577C80.0864 34.9831 79.5523 35.4344 78.9623 35.7929C77.7824 36.51 76.4907 36.8315 75.112 36.8439C74.0377 36.8562 72.9882 36.7326 71.9821 36.3555C69.4546 35.4158 67.9082 33.6046 67.3183 31.0082C66.9953 29.5987 67.0636 28.1213 67.517 26.7489C68.2125 24.6285 69.5974 23.1325 71.6778 22.3227C74.0998 21.383 76.5031 21.4758 78.8443 22.6194C79.4219 22.91 79.9373 23.3056 80.3658 23.7816Z" fill="white"/>
<path d="M103.946 34.81L106.262 32.4795C106.653 32.7824 106.989 33.0791 107.368 33.3202C108.007 33.7468 108.759 33.9755 109.529 33.9631C109.883 33.9508 110.23 33.8766 110.56 33.7468C111.51 33.3944 111.659 32.0158 110.988 31.4842C110.659 31.2184 110.293 31.0082 109.895 30.866C109.33 30.6682 108.759 30.4889 108.194 30.2973C107.56 30.0809 106.939 29.8398 106.386 29.4565C105.088 28.5664 104.623 27.3114 104.759 25.7845C104.828 25.0365 105.051 24.3565 105.511 23.7507C106.225 22.8049 107.194 22.267 108.318 21.9765C109.15 21.7539 110.013 21.6736 110.876 21.7478C112.348 21.8838 113.696 22.3536 114.845 23.2994C114.901 23.355 114.956 23.4107 115.006 23.4663C114.869 23.7383 113.509 25.2158 112.826 25.8216C112.733 25.7289 112.64 25.63 112.547 25.5434C111.659 24.7336 110.622 24.4369 109.448 24.6965C109.218 24.746 108.995 24.882 108.79 25.0056C108.138 25.4136 108.063 26.6438 108.846 27.0333C109.224 27.2187 109.609 27.3856 110.001 27.534C110.814 27.8431 111.646 28.1089 112.448 28.4304C113.069 28.6838 113.621 29.0795 114.062 29.5864C114.571 30.1489 114.882 30.8042 114.944 31.5584C115.074 33.2893 114.565 34.7482 113.1 35.7929C112.385 36.2999 111.578 36.5904 110.727 36.7264C109.088 36.9984 107.405 36.7697 105.896 36.0773C105.312 35.8115 104.772 35.4591 104.287 35.0388C104.176 34.9584 104.064 34.8842 103.946 34.81Z" fill="white"/>
<path d="M103.375 23.522L101.195 25.8278C101.089 25.7289 100.996 25.6424 100.897 25.5496C100.214 24.8943 99.3877 24.5853 98.4499 24.6038C98.1518 24.61 97.8538 24.6594 97.5681 24.7583C96.8353 24.9994 96.4813 25.6424 96.649 26.3533C96.6987 26.6129 96.8601 26.8355 97.0899 26.9653C97.4066 27.1507 97.7358 27.3115 98.0773 27.4475C98.7915 27.7133 99.5181 27.942 100.232 28.2016C101.046 28.4984 101.785 28.9187 102.381 29.5678C102.971 30.1984 103.3 31.0329 103.3 31.8984C103.319 32.838 103.151 33.7344 102.642 34.5442C101.952 35.6384 100.928 36.2752 99.6982 36.5966C97.9345 37.0541 96.2143 36.8872 94.5313 36.2195C93.9103 35.9722 93.3265 35.6322 92.8173 35.2057C92.662 35.0759 92.5192 34.9337 92.3391 34.7668L94.6431 32.4486C95.084 32.9493 95.6305 33.3511 96.2391 33.617C96.9409 33.9199 97.6612 34.0682 98.4251 33.9013C98.7604 33.8271 99.0772 33.7097 99.3318 33.4686C99.8286 32.9926 99.9466 31.9417 99.2324 31.41C98.8536 31.138 98.4375 30.9278 98.0028 30.7857C97.2948 30.5446 96.5869 30.3097 95.8851 30.05C95.3448 29.8584 94.8418 29.5802 94.3947 29.2155C93.5315 28.4922 93.103 27.5649 93.0657 26.4398C93.0346 25.3704 93.2768 24.3936 93.9848 23.5591C94.6866 22.7307 95.5995 22.2485 96.6428 21.9703C97.4749 21.7478 98.3381 21.6674 99.1952 21.7416C100.679 21.8714 102.033 22.3536 103.201 23.3118C103.232 23.3365 103.263 23.3674 103.288 23.3983C103.319 23.4354 103.35 23.4787 103.375 23.522Z" fill="white"/>
<path d="M38.7141 54.5858V40.0213C38.8197 40.0152 38.9253 39.9966 39.0308 39.9966C40.8194 39.9966 42.6141 39.9781 44.4026 40.0028C45.8248 40.0213 47.2158 40.2562 48.52 40.8435C50.5072 41.7399 51.7617 43.2483 52.2088 45.381C52.4572 46.5741 52.4572 47.8043 52.215 48.9974C51.9977 50.1039 51.4946 51.0745 50.7681 51.9276C49.7372 53.1331 48.402 53.8502 46.8805 54.252C45.9986 54.4869 45.0857 54.5982 44.1729 54.592C42.5085 54.5796 40.8442 54.592 39.1799 54.592L38.7141 54.5858ZM42.1545 51.532C42.6514 51.532 43.1358 51.5258 43.6139 51.532C44.3529 51.5381 45.0795 51.4763 45.7875 51.2723C47.2531 50.852 48.2033 49.9494 48.551 48.441C48.7063 47.7425 48.7249 47.0192 48.6069 46.3083C48.4082 45.0719 47.7623 44.1446 46.6321 43.5697C46.0359 43.273 45.3838 43.1061 44.7193 43.069C43.9617 43.0134 43.1979 43.0195 42.4402 43.001C42.3471 43.0072 42.2477 43.0195 42.1545 43.0381V51.532Z" fill="white"/>
<path d="M61.574 39.9967H61.8907C63.7351 39.9967 65.5857 39.9843 67.4302 40.0028C68.43 40.009 69.4174 40.1574 70.3365 40.5839C71.858 41.2887 72.6902 42.4508 72.7274 44.1447C72.7399 44.6516 72.7274 45.1585 72.5784 45.6592C72.2306 46.8276 71.4419 47.588 70.3738 48.1011C70.1875 48.1876 69.9888 48.2556 69.7466 48.3483C70.1068 49.0593 70.5601 49.7145 70.9638 50.3945C71.386 51.0931 71.8083 51.7855 72.2368 52.4778C72.6529 53.1578 73.069 53.8378 73.4913 54.5302C73.1187 54.6167 70.765 54.6353 69.3615 54.5797L66.213 48.812H65.0517V54.524C64.7287 54.6106 62.462 54.6415 61.574 54.5673V39.9967ZM65.0268 46.1785C65.0641 46.1971 65.1014 46.2094 65.1386 46.2156C65.8155 46.2094 66.4986 46.2218 67.1755 46.1909C67.604 46.1723 68.0263 46.0672 68.4114 45.8756C69.3926 45.3934 69.4112 44.0458 68.8958 43.4894C68.6039 43.1679 68.2064 42.9701 67.7717 42.9207C66.8775 42.8156 65.977 42.7909 65.0765 42.8527C65.0641 42.8527 65.0579 42.8712 65.0206 42.8959L65.0268 46.1785Z" fill="white"/>
<path d="M86.104 51.5752V54.5611H75.9006V40.0523C76.1801 39.9781 84.9675 39.9472 85.7065 40.0275V42.9825H79.3162V45.7148H85.3587V48.54H79.3162V51.5814H86.104V51.5752Z" fill="white"/>
<path d="M101.81 41.7399L99.4188 44.1137C99.4064 44.1076 99.3753 44.1076 99.3629 44.089C98.7481 43.3472 97.9408 42.9887 96.9906 42.865C95.9287 42.729 94.9475 42.9268 94.0718 43.5388C92.9851 44.2992 92.4013 45.3625 92.2833 46.6669C92.2212 47.3778 92.2274 48.101 92.451 48.7996C92.8981 50.1782 93.7613 51.1734 95.1897 51.5505C96.4752 51.8905 97.7234 51.7854 98.8102 50.9262C99.0586 50.7345 99.2635 50.4872 99.5057 50.2462L101.959 52.552C101.841 52.688 101.754 52.8116 101.648 52.9105C100.617 53.9058 99.4002 54.5549 97.9905 54.8269C96.3634 55.1422 94.7674 55.0371 93.2148 54.456C90.8425 53.572 89.3148 51.8843 88.6441 49.4672C88.197 47.8909 88.2343 46.2156 88.7621 44.6639C89.5198 42.3952 91.0847 40.893 93.3328 40.0894C94.3637 39.7246 95.4629 39.5639 96.5559 39.6134C98.0836 39.6752 99.5368 40.0275 100.829 40.893C101.195 41.1217 101.524 41.4123 101.81 41.7399Z" fill="white"/>
<path d="M110.827 54.5734H107.318V43.038C106.958 42.9577 106.616 43.0071 106.275 43.001C105.939 42.9886 105.61 43.001 105.275 43.001H103.219V40.0213H115V42.9948H110.976C110.945 43.0133 110.92 43.038 110.895 43.0628C110.889 43.0751 110.883 43.0875 110.883 43.0999C110.876 43.1431 110.87 43.1802 110.87 43.2235C110.87 46.9821 110.864 50.7406 110.864 54.4992C110.864 54.5178 110.852 54.5301 110.827 54.5734Z" fill="white"/>
<path d="M58.4066 54.5734H54.873V40.0151H58.3694C58.4501 40.3428 58.4874 53.2381 58.4066 54.5734Z" fill="white"/>
<path d="M18.7796 38.8715C18.7734 38.9024 18.7796 41.2392 18.7796 41.2639C18.7796 45.3439 18.7796 49.4178 18.7858 53.4978C18.7858 53.6524 18.7858 53.8069 18.7858 53.9738H25.6046V53.5349C25.6046 52.7065 25.5922 51.872 25.6108 51.0436C25.6232 50.7654 25.6605 50.4872 25.7288 50.2091C25.7847 49.9742 25.9027 49.7578 26.0704 49.5847C26.5485 49.0531 27.1385 48.9727 27.8713 48.9047C28.511 48.849 29.0699 48.9109 29.7095 48.9047C29.8586 48.9047 29.989 48.9109 30.1815 48.9232V54.5487H34.9136C34.9136 54.3695 34.8329 18.6136 34.8515 17.9645C35.4663 18.5085 36.1184 18.8732 36.8015 19.1885C37.3046 19.411 37.8386 19.5532 38.3913 19.5965C41.4281 19.8561 44.3283 17.8841 44.9679 14.855C45.533 12.1659 44.0674 9.24188 41.5399 8.13533C40.2668 7.57896 39.0434 7.62842 37.6958 7.7706C38.1367 6.42296 38.323 5.14331 37.8386 3.77712C37.0375 1.55165 34.8019 -0.0432679 32.4109 5.1391e-06C29.7903 0.04946 27.5608 1.9782 27.0826 4.51894C26.8715 5.63168 27.0454 6.65787 27.3372 7.73351C26.4243 7.44296 25.2817 7.60987 24.375 7.86951C22.2387 8.4877 20.5247 10.2928 20.0838 12.475C19.618 14.8056 20.6737 17.3525 22.6796 18.6569C23.5614 19.2318 24.5675 19.3245 25.5984 19.2812C25.8903 19.2689 29.4611 18.7619 29.5232 18.7001C29.7344 18.4838 29.9207 18.2489 30.0821 18.0016C30.1504 19.1081 30.1691 20.2147 30.1691 21.3212C30.1691 27.7627 30.1691 34.198 30.1691 40.6395C30.1691 41.913 30.1567 43.1865 30.1504 44.4599C30.1504 44.5279 30.1504 44.5959 30.1504 44.6948C30.02 44.701 29.9082 44.7196 29.8027 44.7196C29.1692 44.7196 28.5358 44.7319 27.9024 44.7134C27.5794 44.7072 27.2379 44.6887 26.9336 44.5959C26.2505 44.3796 25.8033 43.9097 25.6729 43.1926C25.6232 42.9145 25.5984 42.6363 25.5922 42.3519C25.5798 41.8945 25.5984 41.437 25.586 40.9795V38.8344L18.7796 38.8715Z" fill="#C2C8FF"/>
<path d="M33.9075 18.5889C33.8641 18.5579 33.7771 18.5209 33.7771 18.5023C33.833 18.2241 33.5722 18.1129 33.4666 17.9212C33.3921 17.8038 33.2865 17.7048 33.1685 17.6307C32.8891 17.439 32.7711 17.1918 32.7959 16.8518C32.8021 16.7405 32.6593 16.623 32.5972 16.5056C32.5475 16.4128 32.4854 16.3016 32.4978 16.2088C32.5164 16.0728 32.6593 16.0728 32.7773 16.0728C32.9449 16.079 33.1188 16.0728 33.3486 16.0728C33.3113 15.9554 33.3113 15.8503 33.2555 15.7947C33.0195 15.5412 32.7773 15.3001 32.5289 15.0652C32.4047 14.9477 31.8706 14.9106 31.7153 15.0096C31.5663 15.1023 31.4297 15.2136 31.2806 15.3125C31.2434 15.3372 31.2061 15.3805 31.175 15.3805C30.8273 15.3496 30.6658 15.6339 30.4485 15.8194C30.0448 16.1779 29.6784 16.5921 29.2375 16.9012C28.9208 17.1238 28.6537 17.4761 28.1942 17.4699C28.0886 17.4699 27.9892 17.5998 27.8774 17.6183C27.7595 17.6368 27.6601 17.643 27.5918 17.7543C27.5731 17.7852 27.4862 17.7852 27.4303 17.7852C26.7658 17.8223 24.8655 18.1438 24.1948 18.1747C24.0706 18.1809 23.934 18.1376 23.8657 18.2983C23.8533 18.323 23.7911 18.3292 23.7477 18.3354C23.4993 18.3725 23.2447 18.3972 22.9962 18.4343C22.5429 18.5085 22.133 18.3725 21.7045 18.2179C21.3506 18.0943 21.04 17.9088 20.7047 17.7605C20.5743 17.7048 20.4625 17.6245 20.3631 17.5256C19.9408 17.1114 19.5186 16.6972 19.1087 16.2707C18.9783 16.1347 18.8975 15.9492 18.7857 15.7885C18.6802 15.6401 18.5498 15.5103 18.4566 15.3557C18.3759 15.2197 18.1461 15.1827 18.1896 14.9601L17.5251 14.5397L17.9412 14.3048C17.935 14.2121 17.935 14.1132 17.9287 14.0205C17.7735 14.0328 17.6307 14.0328 17.4878 13.9339C17.2456 13.7546 16.9848 13.5939 16.7116 13.4085C16.873 13.291 17.0717 13.4703 17.1525 13.2663L17.4754 13.3652L17.4071 13.0005L17.5686 13.0252C17.8232 13.0066 17.7238 12.8088 17.7486 12.6728C17.5748 12.4626 17.5251 12.1783 17.6182 11.9186C17.7176 11.6281 17.5934 11.4117 17.4381 11.2077C17.345 11.0841 17.1959 11.0099 17.0842 10.8986C16.9537 10.7688 16.8358 10.6328 16.7116 10.4968C16.5439 10.3237 16.5936 10.1692 16.7488 10.0023L16.9351 10.3608C17.0717 10.2372 17.1773 10.1321 17.3015 10.0332C17.3636 9.98371 17.4444 9.90952 17.5127 9.90952C17.8853 9.92189 17.9971 9.6808 18.084 9.39025C18.2144 8.95752 18.2951 8.51861 18.5498 8.12915C18.7236 7.85715 18.5622 7.39969 18.3324 7.1586C18.0716 6.8866 17.7362 6.85569 17.3947 6.80623C16.9351 6.74441 16.4756 6.68259 16.0098 6.62078C16.0036 6.56514 16.0036 6.51568 16.0098 6.46005C16.1278 5.95314 15.9353 5.53895 15.4695 5.37204C14.923 5.1804 14.3579 5.14949 13.7866 5.19277C13.2773 5.22986 12.7743 5.30404 12.2651 5.33495C11.9235 5.35968 11.5757 5.33495 11.228 5.34113C10.9671 5.34731 10.7125 5.32877 10.4827 5.21131C10.2095 5.07531 9.94246 4.92076 9.67543 4.7724C9.52017 5.16186 9.83689 5.53277 9.79963 5.99641L8.81221 5.37204C8.7439 5.76768 8.89915 6.1015 9.06062 6.48478C8.91157 6.47859 8.79979 6.49096 8.70043 6.46005C8.58244 6.41059 8.47065 6.35496 8.35887 6.28696C8.28435 6.62696 8.53275 6.82478 8.59486 7.07823L8.27193 7.28842C8.20983 7.67169 8.32782 8.05497 8.60107 8.33315C8.87431 8.62988 8.97989 8.97606 8.87431 9.37788C8.81842 9.58189 8.78737 9.79825 8.73148 10.0023C8.58244 10.6019 8.63212 10.7255 9.19103 10.9914C9.15377 11.0841 9.12272 11.1768 9.10409 11.2757C9.0482 11.7641 8.97368 12.2524 8.94884 12.747C8.93642 13.1859 8.79979 13.6186 8.54518 13.9772C8.48928 14.0576 8.47065 14.1688 8.39613 14.3543L9.21587 13.8906C9.14756 14.1688 9.11651 14.379 9.03578 14.5706C8.83084 15.0652 8.64454 15.5659 8.55138 16.0976C8.49549 16.4314 8.44581 16.7714 8.63833 17.1361L8.96126 16.3448C9.00473 16.6601 9.00473 16.9754 8.96126 17.2907C8.89915 17.8656 8.6197 18.3663 8.40234 18.8856C8.25951 19.2318 8.0732 19.5656 8.08562 20.0292L8.81842 19.4729C8.73769 19.9612 8.47065 20.2332 8.24709 20.5485C8.75011 20.6165 8.76874 20.6165 9.24071 20.4805C9.29661 20.8576 9.04199 21.0801 8.79979 21.3398C9.1103 21.3645 9.37734 21.3954 9.63196 21.2656C9.87415 21.142 10.1163 21.006 10.3772 20.8576C10.4144 21.4511 10.2716 21.9456 9.81826 22.3845H10.638C10.6256 22.4587 10.607 22.5391 10.5821 22.6132C10.2716 23.4292 9.94246 24.2453 9.65059 25.0674C9.21587 26.3224 8.52654 27.4475 7.89932 28.6035C7.85584 28.69 7.81858 28.7766 7.79995 28.8755C7.71301 29.3391 7.51429 29.7657 7.29693 30.1737C7.11062 30.526 6.86843 30.8475 6.57034 31.1133C5.86238 31.7377 4.78181 31.5028 4.46509 30.6187C4.27879 30.1057 4.42783 29.5926 4.76939 29.1784C5.0178 28.8755 5.28483 28.5664 5.66986 28.3686L4.73834 28.5355C4.84391 27.942 4.99917 27.3795 5.30967 26.8664C5.65123 26.31 5.91206 25.7165 6.03005 25.0613C6.0611 24.8944 6.08595 24.7274 6.12942 24.5667C6.35298 23.7383 6.59518 22.9162 6.81254 22.0878C6.94916 21.5685 7.0361 21.0431 7.07957 20.5114C7.16031 19.5656 7.02989 18.6383 6.88706 17.7172C6.76906 16.9507 6.76285 16.1903 6.76285 15.4299C6.76906 15.3743 6.78149 15.3187 6.80633 15.2692C6.88706 15.0714 6.974 14.8736 7.07336 14.6386C6.4213 14.7128 6.35919 15.2877 6.07353 15.6957C5.88101 15.5041 5.70091 15.3248 5.51461 15.1517C5.0799 14.7314 4.56445 14.4656 3.94965 14.4903C3.4342 14.515 2.9436 14.7128 2.55857 15.059C1.60841 15.8874 1.14265 16.9321 1.12402 18.1747C1.11781 18.731 1.10539 19.2812 1.21096 19.8314C1.2979 20.258 1.14265 20.6412 0.88182 20.9812C0.701725 21.2161 0.540261 21.2223 0.316694 21.0183C0.235962 20.9441 0.16144 20.87 0.0310264 20.7401C0.0248162 21.21 -0.118018 21.6056 0.254593 21.9271C0.670674 22.2918 1.12402 22.3536 1.6643 22.094C1.6643 22.3351 1.70156 22.5391 1.65809 22.7245C1.54631 23.1943 1.58978 23.6642 1.6022 24.134C1.62083 24.7089 1.75124 25.2714 2.13006 25.7165C2.39089 26.0194 2.6393 26.3162 2.7635 26.7118C3.03054 26.6067 3.11748 26.3965 3.12369 26.1925C3.13611 25.7969 3.17958 25.3951 3.03675 25.0056C2.9436 24.7398 2.87529 24.4678 2.8256 24.1958C2.75108 23.8311 2.73866 23.4725 2.99328 23.1387C3.19822 23.3798 3.49009 23.5405 3.80681 23.59C3.76334 23.2747 3.68882 22.9965 3.78197 22.6998C3.87512 22.4092 3.88754 22.094 3.94344 21.7601C4.07385 21.8405 4.20426 21.9271 4.34089 22.0012C4.47751 22.0816 4.64518 22.0816 4.78181 22.0074C4.22289 21.1852 4.14216 21.006 4.21668 20.734C4.43404 20.8514 4.62655 21.0369 4.9619 20.975L4.15458 19.6954C4.70108 18.9536 4.73834 18.8299 4.63276 18.2674C4.5955 18.2921 4.55203 18.3107 4.5334 18.3416C4.09248 19.1019 3.2479 19.1638 2.72003 18.4838C2.26048 17.8903 2.0928 16.6107 2.89392 15.9677C3.65777 15.3557 4.37815 15.399 4.98053 16.0357C5.41525 16.5056 5.72576 17.0743 5.88101 17.6987C5.97416 18.0634 5.999 18.4529 6.07974 18.8238C6.2412 19.5161 6.11079 20.1961 6.02384 20.8823C5.94932 21.4263 5.82512 21.9641 5.65123 22.4834C5.43388 23.1511 5.25378 23.8373 5.01159 24.4987C4.87496 24.882 4.70108 25.2529 4.50235 25.6114C3.96207 26.5758 3.22306 27.3795 2.52131 28.2202C2.16733 28.6406 1.87545 29.1104 1.58357 29.574C1.34137 29.9635 1.2979 30.4209 1.1737 30.8598C0.950132 31.6635 0.87561 32.4919 0.788668 33.314C0.745196 33.7715 0.844559 34.2166 0.956342 34.6555C1.08676 35.1933 1.34758 35.657 1.77609 36.0093C2.16112 36.3122 2.6393 36.4606 3.1299 36.4297C3.44041 36.405 3.74471 36.3432 4.03659 36.2504C5.02401 35.9537 5.80028 35.3726 6.39645 34.569C6.93053 33.8519 7.37766 33.0791 7.86206 32.3311C7.90553 32.2631 7.96142 32.2075 8.06078 32.0777C8.12288 32.3126 8.27814 32.3991 8.30919 32.6093C8.38992 33.1904 8.51412 33.7715 8.61349 34.3526C8.70664 34.8904 8.83705 35.4159 8.72527 35.9722C8.58244 36.6646 8.3154 37.2766 7.7068 37.6784C7.18515 38.0246 6.61381 38.2533 5.95553 38.1112C5.90585 38.0988 5.84996 38.1297 5.77544 38.1421L5.91206 38.5006C5.71954 38.6428 5.55187 38.5192 5.37799 38.4883C5.29725 38.921 5.73818 39.0075 5.88101 39.2981L5.41525 39.4774C5.53324 39.601 5.66365 39.7123 5.80028 39.8112C6.08595 40.0461 6.41508 40.213 6.76906 40.3119C6.74422 40.7446 6.55171 41.165 6.83117 41.573L6.89948 41.5297C6.91811 41.573 6.94295 41.6225 6.974 41.6657L7.11062 41.5792C7.14789 41.8821 6.94916 42.185 7.09199 42.4817L7.19136 42.4323C7.19757 42.4756 7.20999 42.5188 7.23483 42.5621L7.35282 42.5003C7.42113 42.8526 7.48323 43.1927 7.55155 43.5512L7.66333 43.4956C7.66954 43.5327 7.67575 43.5759 7.68817 43.613L7.81237 43.5512L7.92416 43.817C7.94279 43.8974 7.95521 43.9839 7.96142 44.0643C7.96763 44.2868 7.96142 44.5032 7.96142 44.7876L8.08562 44.6825C8.08562 44.7319 8.08562 44.7814 8.08562 44.837L8.29056 44.6578C8.27193 44.7814 8.25951 44.905 8.22225 45.0163C8.09183 45.3687 8.12288 45.6839 8.38371 45.9374C8.19119 46.4196 7.72543 46.4505 7.30935 46.6236C7.51429 46.8338 7.65712 47.0501 7.92416 47.1305C8.09804 47.18 8.26572 47.2109 8.4396 47.217C8.68801 47.2418 8.93021 47.2232 9.16619 47.1305C9.49533 47.0069 9.81205 46.8399 9.88036 46.4319C9.89278 46.3516 9.94867 46.2836 10.017 46.2465C10.1722 46.197 10.3461 46.1538 10.5014 46.1847C10.5449 46.2032 10.5821 46.2218 10.6194 46.2527C10.7933 46.3949 10.7684 46.6483 10.7001 46.8523C10.6318 47.0378 10.5573 47.2232 10.4641 47.3963C10.4082 47.4952 10.3461 47.588 10.2778 47.6745C10.3399 47.7054 10.3772 47.7363 10.4144 47.7363C10.4331 47.7363 10.4455 47.7301 10.4641 47.7301C10.4765 47.7363 10.489 47.7425 10.5014 47.7363C10.9299 47.6745 11.346 47.6312 11.7186 47.3469C12.1471 47.0192 12.3272 46.3269 12.1843 45.9745C12.0042 45.5232 12.1098 45.0719 12.0788 44.6268C12.321 44.6454 12.4948 44.7072 12.6315 44.8123C12.8985 45.0534 12.9854 45.4428 13.0972 45.8261C13.1097 45.8199 13.1159 45.8076 13.1283 45.8014C13.1345 45.8199 13.1407 45.8385 13.1469 45.857C13.3767 45.6778 13.4947 45.4552 13.5071 45.2327C13.5382 44.7628 13.5692 44.2868 13.3022 43.8417C13.2587 43.7676 13.209 43.6996 13.1593 43.6316C12.9979 43.409 12.7991 43.2483 12.5135 43.1803C12.4452 43.1741 12.3769 43.1494 12.321 43.1061C12.0105 42.7908 11.6068 42.7228 11.1969 42.6796C10.8554 42.6425 10.5511 42.5436 10.3089 42.3457C10.2033 42.2345 10.1101 42.1046 10.0418 41.9377C9.79342 41.3443 9.69406 40.6952 9.75616 40.0523C9.781 39.8606 9.86794 39.6814 10.0046 39.5454C10.1785 39.3723 10.4144 39.2548 10.6194 39.1126C11.1534 38.7541 11.6999 38.4141 12.2154 38.037C12.6315 37.7279 12.9854 37.3446 13.1842 36.8439C13.2897 36.541 13.4698 36.2628 13.7058 36.0402C13.948 35.8362 14.0722 35.5271 14.035 35.2119C14.0101 34.9646 13.9791 34.7235 13.9542 34.4515C14.3579 34.4391 14.7553 34.5257 15.1155 34.705C15.1342 35.5086 14.7429 36.1453 14.2399 36.7512L14.3641 36.8006C14.3331 36.8377 14.302 36.881 14.271 36.9181L14.4138 36.9799L13.9604 37.3137L14.1343 37.3755C14.0909 37.4064 14.0474 37.4435 13.9977 37.4744L14.5753 37.6723C14.42 37.833 14.1716 37.8392 13.8921 37.901L14.0536 38.0246C14.0101 38.0308 13.9667 38.0432 13.9232 38.0493L14.3144 38.3399C14.1902 38.4203 14.035 38.3337 13.8921 38.3337C13.8983 38.3955 13.9108 38.445 13.9294 38.4883C13.9667 38.7664 14.1468 38.8715 14.3517 38.9148C14.5318 38.9395 14.7119 38.9581 14.892 38.9581C14.9106 38.9828 14.923 39.0137 14.9292 39.0384C14.923 39.2115 14.8174 39.3723 14.8858 39.5639C14.8858 39.6195 14.8982 39.6814 14.9292 39.7432L15.3826 39.2239C15.3826 39.261 15.3888 39.2857 15.3888 39.3104C15.395 39.3599 15.395 39.4094 15.4074 39.4588C15.4323 39.533 15.4881 39.6134 15.5192 39.6875C15.5006 39.8112 15.4198 39.9286 15.3764 40.0461C15.3329 40.1635 15.3081 40.2872 15.2708 40.417C15.2832 40.4232 15.3018 40.4232 15.3143 40.4294C15.3081 40.4603 15.2956 40.4974 15.2894 40.5283C15.7366 40.6519 15.7738 40.1635 16.0533 40.0337C16.0905 40.1512 16.1278 40.2625 16.1713 40.4108L16.6557 40.1203C16.6619 40.2315 16.6681 40.3057 16.6743 40.3737C16.9165 40.4232 17.0283 40.2192 17.1463 40.0955C17.3698 39.8668 17.6369 39.7864 17.935 39.7864C18.233 39.7864 18.5249 39.7061 18.7795 39.5577C19.2888 39.2795 19.8663 39.2239 20.4439 39.2795C20.4687 39.2795 20.4998 39.2857 20.5246 39.2981C20.7854 39.4835 20.9779 39.7494 21.0711 40.0584C21.1394 40.2872 21.0587 40.4912 20.8599 40.6519C20.7482 40.7385 20.5805 40.8374 20.6861 41.029C20.7792 41.2021 20.9593 41.1526 21.1021 41.1465C21.1953 41.1403 21.3133 41.1217 21.363 41.0599C21.6611 40.7385 22.0896 40.5221 22.1951 40.0275C22.2262 39.8915 22.3566 39.7741 22.4498 39.6566C22.6485 39.4217 22.7168 39.1435 22.7044 38.8468C22.6671 38.7912 22.6298 38.7355 22.5926 38.6799C22.9155 38.5933 22.9155 38.5933 23.0397 38.8592C23.195 38.8406 23.2633 38.9334 23.2819 39.0632C23.3005 39.2301 23.4247 39.2734 23.5614 39.3043C23.934 38.7603 23.8284 38.2286 23.5117 37.7032C23.4744 37.6413 23.4247 37.5672 23.3689 37.5486C23.0521 37.4621 22.8286 37.2704 22.6298 37.0293C23.0521 36.6955 23.5365 36.8748 24.0333 37.017C24.0023 36.7264 23.8719 36.5039 23.6918 36.3741C23.3005 36.0959 22.9031 35.8115 22.3814 35.7991C22.3566 35.7991 22.338 35.7991 22.3131 35.7991C22.133 35.7497 21.9405 35.7497 21.7356 35.8053C21.5741 35.8486 21.4064 35.8671 21.245 35.9228C21.0897 35.9784 20.9407 36.0588 20.8041 36.1453C20.2203 36.5286 19.6738 36.9922 18.9596 37.1097C18.7733 37.1406 18.587 37.1592 18.4007 37.1592C18.3883 37.1035 18.3759 37.0479 18.3635 36.9922C18.32 36.9922 18.2765 36.9861 18.233 36.9861C17.9412 36.9613 17.7052 36.6646 17.7114 36.3061C17.7176 35.9042 17.7487 35.5024 17.7921 35.1068C17.8356 34.7359 17.8977 34.365 17.9536 33.9879C17.9971 33.6664 18.0405 33.3511 18.084 33.0297C18.084 33.0297 18.084 33.0297 18.0778 33.0297C18.1088 32.8133 18.1337 32.6031 18.1647 32.3868C18.1958 32.1519 18.233 31.9108 18.2827 31.6758C18.351 31.3606 18.4193 31.0453 18.5001 30.73C18.6057 30.3158 18.5808 30.3282 18.2393 30.0562C17.8853 29.778 17.463 29.7038 17.0531 29.6235C16.4818 29.5184 15.898 29.4875 15.3205 29.4195C15.0286 29.3886 14.7305 29.3453 14.4386 29.3082C14.3455 29.166 14.4262 29.0733 14.5007 28.962C14.8485 28.4675 15.3018 28.0718 15.78 27.7133C16.8233 26.9344 17.7487 26.038 18.4815 24.9562C18.5125 24.9129 18.5622 24.8758 18.5932 24.8325C18.6429 24.7645 18.6864 24.6903 18.7299 24.6162C19.0217 24.8511 18.9845 25.154 19.1087 25.4507L19.3881 25.1602L19.4813 25.3827C20.183 25.086 20.5991 24.542 20.8289 23.8434C21.0959 23.8682 21.1021 24.134 21.2947 24.2576C21.4996 23.93 21.4002 23.5962 21.3692 23.2623L22.2572 23.3365L22.2013 23.0769L22.8783 23.1943C23.0583 22.9718 22.7416 22.9162 22.7416 22.7492H23.4744L23.1453 22.366H23.8967L23.7228 22.0569C23.8781 22.0507 24.0023 22.0445 24.1265 22.0383C24.288 22.026 24.4432 22.0136 24.4867 21.8096C24.4991 21.7601 24.5798 21.7231 24.6419 21.6983C24.9152 21.5871 25.1946 21.482 25.4865 21.3645L25.3623 21.1481C25.7163 21.0431 27.2875 20.6536 27.6477 20.5485L27.5794 20.3816L28.1259 20.2456L27.9085 20.1343C28.2687 20.0292 28.6165 19.9427 28.958 19.8252C29.0822 19.782 29.1754 19.6521 29.2809 19.5594C29.2685 19.4605 29.2561 19.3678 29.2437 19.2627C29.2809 19.2503 29.312 19.2441 29.3493 19.2441C29.6784 19.2441 30.0448 19.1699 30.3305 19.2812C30.6037 19.3863 30.7962 19.6892 31.0198 19.9118C31.1316 20.0292 31.2434 20.122 31.4297 20.1034C31.5042 20.0972 31.6284 20.1343 31.6532 20.1838C31.7402 20.4001 31.8333 20.6227 31.8582 20.8514C31.8644 21.0307 31.9575 21.1976 32.1128 21.2903C32.4419 21.2347 32.504 20.8329 32.8145 20.7463C32.8145 20.4867 32.8145 20.2456 32.8145 20.0045C32.8145 19.9365 32.827 19.8438 32.7897 19.8005C32.5351 19.51 32.6903 19.1761 32.6469 18.8114C32.7835 18.8299 32.9201 18.8052 32.9884 18.8609C33.1064 18.9536 33.1934 19.0834 33.243 19.2318C33.2803 19.3987 33.3362 19.4852 33.5163 19.5161C33.7523 19.2998 33.7957 18.9845 33.9199 18.7187L33.9075 18.5889ZM17.1587 13.2106L17.1711 13.2725L17.109 13.2415L17.1587 13.2106ZM5.0799 33.7839C4.7756 34.1239 4.44646 34.4391 4.1049 34.7359C3.78197 35.0264 3.37831 35.0573 2.96844 35.0141C2.72003 34.9955 2.50268 34.841 2.40331 34.6122C2.2108 34.2166 2.09901 33.79 2.08038 33.3511C2.04312 32.4424 2.22943 31.5399 2.60825 30.7177C2.80076 30.3158 3.04917 29.9387 3.34105 29.6049C3.34726 29.6791 3.35968 29.7471 3.36589 29.8213C3.40315 30.186 3.40936 30.5569 3.48388 30.9155C3.60188 31.4657 3.99312 31.8304 4.45267 32.1086C4.72592 32.2755 5.03022 32.3991 5.35314 32.5599C5.05506 32.9308 4.63276 33.2584 4.70108 33.9137C4.88738 33.7282 5.00538 33.5984 5.142 33.4809C5.23515 33.413 5.33451 33.3511 5.43388 33.3017C5.4463 33.5428 5.21031 33.6355 5.0799 33.7839ZM5.45251 33.2769C5.45872 33.2584 5.45872 33.246 5.46493 33.2275L5.5084 33.2522L5.45251 33.2769ZM13.9232 34.3031C13.9232 34.2784 13.917 34.2537 13.917 34.229C14.0101 34.2228 14.0971 34.229 14.1902 34.2351C14.1033 34.2537 14.0101 34.2784 13.9232 34.3031ZM15.4136 10.4226C15.4074 10.4906 15.3205 10.5586 15.2211 10.6946C15.2025 10.4412 15.1901 10.2743 15.1714 10.0455C15.1217 10.1197 15.0721 10.1939 15.0348 10.2743C14.9789 10.4103 14.9106 10.5339 14.7243 10.4906C14.5194 10.4412 14.42 10.3484 14.4262 10.1444C14.4324 9.87862 14.4573 9.6128 14.5069 9.35316C14.569 9.0317 14.6436 9.00079 15.0721 9.06879C15.0472 9.36552 15.0224 9.63752 14.9975 9.94043L15.395 9.74262C15.4012 9.97753 15.426 10.2001 15.4136 10.4226ZM15.749 10.6884C15.4198 10.2804 15.4633 10.1135 15.9415 9.8848C15.9912 10.4412 15.9912 10.4412 15.749 10.6884ZM16.3638 10.6513C16.3203 10.6204 16.2768 10.5895 16.2396 10.5463C16.1775 10.4721 16.1278 10.3917 16.0595 10.2928L16.3452 9.97752C16.5066 10.3423 16.5066 10.3732 16.3638 10.6513Z" fill="white"/>
</g>
<defs>
<clipPath id="clip0">
<rect width="115" height="55" fill="white"/>
</clipPath>
</defs>
</svg>
