<svg width="40" height="40" viewBox="0 0 40 40" fill="none" xmlns="http://www.w3.org/2000/svg">
<g filter="url(#filter0_d)">
<path d="M36 16.5146C36 7.93615 29.0078 0.997692 20.3628 0.997691C11.7178 0.997691 4.72558 7.93615 4.72558 16.5146C4.72558 25.0931 11.7496 32 20.3628 32C28.976 32 36 25.0615 36 16.5146Z" fill="url(#paint0_linear)"/>
</g>
<path d="M29.2078 12.0253C28.993 11.2258 28.3484 10.6129 27.5696 10.3997C26.1195 10 20.2919 10 20.2919 10C20.2919 10 14.4643 10 13.0141 10.3997C12.2085 10.6129 11.5908 11.2525 11.376 12.0253C11 13.4643 11 16.449 11 16.449C11 16.449 11 19.4603 11.4028 20.8993C11.6177 21.6987 12.2622 22.3117 13.041 22.5248C14.4912 22.9246 20.3187 22.9246 20.3187 22.9246C20.3187 22.9246 26.1463 22.9246 27.5965 22.5248C28.4022 22.3117 29.0198 21.6721 29.2347 20.8993C29.6375 19.4603 29.6375 16.449 29.6375 16.449C29.6375 16.449 29.6106 13.4643 29.2078 12.0253Z" stroke="white" stroke-width="2" stroke-miterlimit="10"/>
<path d="M18.439 19.247L23.2729 16.4489L18.439 13.6775V19.247Z" fill="white"/>
<defs>
<filter id="filter0_d" x="0.725586" y="0.997681" width="39.2744" height="39.0023" filterUnits="userSpaceOnUse" color-interpolation-filters="sRGB">
<feFlood flood-opacity="0" result="BackgroundImageFix"/>
<feColorMatrix in="SourceAlpha" type="matrix" values="0 0 0 0 0 0 0 0 0 0 0 0 0 0 0 0 0 0 127 0"/>
<feOffset dy="4"/>
<feGaussianBlur stdDeviation="2"/>
<feColorMatrix type="matrix" values="0 0 0 0 0 0 0 0 0 0 0 0 0 0 0 0 0 0 0.25 0"/>
<feBlend mode="normal" in2="BackgroundImageFix" result="effect1_dropShadow"/>
<feBlend mode="normal" in="SourceGraphic" in2="effect1_dropShadow" result="shape"/>
</filter>
<linearGradient id="paint0_linear" x1="20.3628" y1="32" x2="20.3628" y2="0.997691" gradientUnits="userSpaceOnUse">
<stop stop-color="#1F56BA"/>
<stop offset="1" stop-color="#1B4F9B"/>
</linearGradient>
</defs>
</svg>
