<?xml version="1.0" encoding="utf-8"?>
<!-- Generator: Adobe Illustrator 25.4.1, SVG Export Plug-In . SVG Version: 6.00 Build 0)  -->
<svg version="1.1" id="Layer_1" xmlns="http://www.w3.org/2000/svg" xmlns:xlink="http://www.w3.org/1999/xlink" x="0px" y="0px"
	 viewBox="0 0 1792 884.6" style="enable-background:new 0 0 1792 884.6;" xml:space="preserve">
<style type="text/css">
	.st0{clip-path:url(#SVGID_00000166639385532285669910000016224535482044369578_);}
	.st1{fill:#F2F2F2;}
	.st2{fill:#CCCCCC;}
	.st3{fill:#3F3D56;}
	.st4{fill:#E6E6E6;}
	.st5{fill:#FFFFFF;}
	.st6{fill:#FFB8B8;}
	.st7{fill:#6C63FF;}
	.st8{fill:#2F2E41;}
	.st9{fill:#1F56BA;}
	.st10{fill:#A0616A;}
	.st11{fill:#FF6584;}
	.st12{fill:#B3B3B3;}
	.st13{clip-path:url(#SVGID_00000152951902744159092300000010700965431782138245_);}
	.st14{clip-path:url(#SVGID_00000062150789278255353390000012694298548409826746_);}
	.st15{opacity:0.1;enable-background:new    ;}
</style>
<g>
	<defs>
		<rect id="SVGID_1_" y="124.6" width="1047.8" height="450.3"/>
	</defs>
	<clipPath id="SVGID_00000062162375648599893890000018348360436179105938_">
		<use xlink:href="#SVGID_1_"  style="overflow:visible;"/>
	</clipPath>
	<g style="clip-path:url(#SVGID_00000062162375648599893890000018348360436179105938_);">
		<path class="st1" d="M29.3,520c0-4.5,1.8-8.9,5-12.1c3.2-3.2,7.6-5,12.1-5s8.9,1.8,12.1,5c3.2,3.2,5,7.6,5,12.1"/>
		<path class="st2" d="M46.5,520c-0.1,0-0.2,0-0.3-0.1c-0.1-0.1-0.1-0.2-0.1-0.3v-9c0-0.1,0-0.2,0.1-0.3c0.1-0.1,0.2-0.1,0.3-0.1
			c0.1,0,0.2,0,0.3,0.1c0.1,0.1,0.1,0.2,0.1,0.3v9c0,0.1,0,0.2-0.1,0.3C46.7,520,46.6,520,46.5,520L46.5,520z"/>
		<path class="st2" d="M46.5,516.9c-0.1,0-0.2,0-0.3-0.1l-5.6-4.8c0,0-0.1-0.1-0.1-0.1c0-0.1,0-0.1,0-0.2c0-0.1,0-0.1,0-0.2
			c0-0.1,0-0.1,0.1-0.2c0,0,0.1-0.1,0.1-0.1c0.1,0,0.1,0,0.2,0c0.1,0,0.1,0,0.2,0c0.1,0,0.1,0,0.2,0.1l5.6,4.8
			c0.1,0.1,0.1,0.1,0.1,0.2c0,0.1,0,0.2,0,0.3c0,0.1-0.1,0.2-0.2,0.2C46.7,516.9,46.6,516.9,46.5,516.9L46.5,516.9z"/>
		<path class="st1" d="M82.2,520c0-4.5,1.8-8.9,5-12.1c3.2-3.2,7.6-5,12.1-5c4.6,0,8.9,1.8,12.1,5c3.2,3.2,5,7.6,5,12.1"/>
		<path class="st2" d="M99.4,520c-0.1,0-0.2,0-0.3-0.1c-0.1-0.1-0.1-0.2-0.1-0.3v-9c0-0.1,0-0.2,0.1-0.3c0.1-0.1,0.2-0.1,0.3-0.1
			s0.2,0,0.3,0.1c0.1,0.1,0.1,0.2,0.1,0.3v9c0,0.1,0,0.2-0.1,0.3C99.6,520,99.5,520,99.4,520L99.4,520z"/>
		<path class="st2" d="M99.4,516.9c-0.1,0-0.2,0-0.3-0.1l-5.6-4.8c0,0-0.1-0.1-0.1-0.1c0-0.1,0-0.1-0.1-0.2c0-0.1,0-0.1,0-0.2
			c0-0.1,0-0.1,0.1-0.2c0,0,0.1-0.1,0.1-0.1c0.1,0,0.1,0,0.2,0c0.1,0,0.1,0,0.2,0c0.1,0,0.1,0,0.2,0.1l5.6,4.8
			c0.1,0.1,0.1,0.1,0.1,0.2c0,0.1,0,0.2,0,0.3c0,0.1-0.1,0.2-0.2,0.2C99.6,516.9,99.5,516.9,99.4,516.9L99.4,516.9z"/>
		<path class="st1" d="M784.8,191.9c18.2,0,33-14.8,33-33c0-18.2-14.8-33-33-33c-18.2,0-33,14.8-33,33
			C751.8,177.1,766.6,191.9,784.8,191.9z"/>
		<path class="st1" d="M108.8,556.9c16.6,0,30-3.1,30-7c0-3.9-13.4-7-30-7c-16.6,0-30,3.1-30,7C78.8,553.7,92.2,556.9,108.8,556.9z"
			/>
		<path class="st1" d="M93.5,262.5c7.9-24.6,27.1-43.6,49.9-55c27-13.4,58.1-15,87.4-9.7c31.7,5.6,61.3,18.7,90,32.9
			c28.1,13.9,55.8,28.7,85,40.2c58.4,23,120.3,35.8,182.9,37.9c56.4,1.9,116.8-4.3,165.1-36c44.3-29.1,72.4-77,87.1-127
			c1.9-6.4,3.5-12.9,5-19.4c0.4-1.9-2.5-2.7-2.9-0.8c-11.8,52.2-37.1,103.8-80.2,137C716.2,298.6,655,307,597.7,306
			c-63.4-1.1-126.1-13.2-185.3-35.8c-30-11.4-58.3-26.2-87-40.6c-28-14-56.9-27.1-87.7-33.6c-28.1-5.9-58.3-6.3-85.4,4.2
			c-22.3,8.6-42.7,24-54.6,45.1c-2.9,5.2-5.3,10.6-7.1,16.3C90,263.6,92.9,264.4,93.5,262.5L93.5,262.5z"/>
		<path class="st3" d="M521.8,492.2c0.3,0,0.5-0.1,0.7-0.3c0.2-0.2,0.3-0.4,0.3-0.7c0-0.3-0.1-0.5-0.3-0.7c-0.2-0.2-0.4-0.3-0.7-0.3
			h-9.5v-4h9.5c0.3,0,0.5-0.1,0.7-0.3c0.2-0.2,0.3-0.4,0.3-0.7c0-0.3-0.1-0.5-0.3-0.7c-0.2-0.2-0.4-0.3-0.7-0.3h-81
			c-0.3,0-0.5,0.1-0.7,0.3c-0.2,0.2-0.3,0.4-0.3,0.7c0,0.3,0.1,0.5,0.3,0.7c0.2,0.2,0.4,0.3,0.7,0.3h9.5v4h-9.5
			c-0.3,0-0.5,0.1-0.7,0.3c-0.2,0.2-0.3,0.4-0.3,0.7c0,0.3,0.1,0.5,0.3,0.7c0.2,0.2,0.4,0.3,0.7,0.3h9.5v4h-9.5
			c-0.3,0-0.5,0.1-0.7,0.3c-0.2,0.2-0.3,0.4-0.3,0.7c0,0.3,0.1,0.5,0.3,0.7c0.2,0.2,0.4,0.3,0.7,0.3h9.5v4h-8.5
			c-0.5,0-1,0.2-1.4,0.6c-0.4,0.4-0.6,0.9-0.6,1.4c0,0.5,0.2,1,0.6,1.4s0.9,0.6,1.4,0.6h8.1c-0.1,0.2-0.1,0.3-0.1,0.5v14
			c0,0.4,0.2,0.8,0.4,1.1c0.3,0.3,0.7,0.4,1.1,0.4c0.4,0,0.8-0.2,1.1-0.4c0.3-0.3,0.4-0.7,0.4-1.1v-14c0-0.2,0-0.3-0.1-0.5h57.2
			c-0.1,0.2-0.1,0.3-0.1,0.5v14c0,0.4,0.2,0.8,0.4,1.1c0.3,0.3,0.7,0.4,1.1,0.4c0.4,0,0.8-0.2,1.1-0.4c0.3-0.3,0.4-0.7,0.4-1.1v-14
			c0-0.2,0-0.3-0.1-0.5h8.1c0.5,0,1-0.2,1.4-0.6c0.4-0.4,0.6-0.9,0.6-1.4c0-0.5-0.2-1-0.6-1.4c-0.4-0.4-0.9-0.6-1.4-0.6h-8.5v-4h9.5
			c0.3,0,0.5-0.1,0.7-0.3c0.2-0.2,0.3-0.4,0.3-0.7c0-0.3-0.1-0.5-0.3-0.7c-0.2-0.2-0.4-0.3-0.7-0.3h-9.5v-4H521.8z M452.3,486.2h58
			v4h-58V486.2z M510.3,502.2h-58v-4h58V502.2z M510.3,496.2h-58v-4h58V496.2z"/>
		<path class="st4" d="M216.8,450.3c0-17.7-14.3-59.6-32-59.6c-17.7,0-32,41.9-32,59.6c0,8.5,3.4,16.6,9.4,22.6
			c6,6,14.1,9.4,22.6,9.4c8.5,0,16.6-3.4,22.6-9.4C213.4,466.9,216.8,458.7,216.8,450.3L216.8,450.3z"/>
		<path class="st1" d="M208.8,450.3c0-17.7-14.3-59.6-32-59.6c-17.7,0-32,41.9-32,59.6c0,8.5,3.4,16.6,9.4,22.6
			c6,6,14.1,9.4,22.6,9.4c8.5,0,16.6-3.4,22.6-9.4C205.4,466.9,208.8,458.7,208.8,450.3L208.8,450.3z"/>
		<path class="st2" d="M177.8,521.8c-0.3,0-0.5-0.1-0.7-0.3c-0.2-0.2-0.3-0.4-0.3-0.7v-89.1c0-0.3,0.1-0.5,0.3-0.7
			c0.2-0.2,0.4-0.3,0.7-0.3c0.3,0,0.5,0.1,0.7,0.3c0.2,0.2,0.3,0.4,0.3,0.7v89.1c0,0.3-0.1,0.5-0.3,0.7
			C178.3,521.7,178.1,521.8,177.8,521.8z"/>
		<path class="st2" d="M177.8,446.3c-0.2,0-0.4-0.1-0.6-0.2c-0.2-0.1-0.3-0.3-0.4-0.4c-0.1-0.2-0.1-0.4-0.1-0.6
			c0-0.2,0.1-0.4,0.3-0.5l13.1-13.1c0.2-0.2,0.4-0.3,0.7-0.3s0.5,0.1,0.7,0.3c0.2,0.2,0.3,0.4,0.3,0.7c0,0.3-0.1,0.5-0.3,0.7
			L178.5,446c-0.1,0.1-0.2,0.2-0.3,0.2C178.1,446.3,177.9,446.3,177.8,446.3L177.8,446.3z"/>
		<path class="st3" d="M545.8,521.8c-0.3,0-0.5-0.1-0.7-0.3c-0.2-0.2-0.3-0.4-0.3-0.7v-89.1c0-0.3,0.1-0.5,0.3-0.7
			c0.2-0.2,0.4-0.3,0.7-0.3c0.3,0,0.5,0.1,0.7,0.3c0.2,0.2,0.3,0.4,0.3,0.7v89.1c0,0.3-0.1,0.5-0.3,0.7
			C546.3,521.7,546.1,521.8,545.8,521.8z"/>
		<path class="st4" d="M652.8,450.3c0-17.7-14.3-59.6-32-59.6c-17.7,0-32,41.9-32,59.6c0,8.5,3.4,16.6,9.4,22.6
			c6,6,14.1,9.4,22.6,9.4s16.6-3.4,22.6-9.4C649.4,466.9,652.8,458.7,652.8,450.3L652.8,450.3z"/>
		<path class="st1" d="M644.8,450.3c0-17.7-14.3-59.6-32-59.6c-17.7,0-32,41.9-32,59.6c0,8.5,3.4,16.6,9.4,22.6
			c6,6,14.1,9.4,22.6,9.4s16.6-3.4,22.6-9.4C641.4,466.9,644.8,458.7,644.8,450.3L644.8,450.3z"/>
		<path class="st2" d="M613.8,521.8c-0.3,0-0.5-0.1-0.7-0.3c-0.2-0.2-0.3-0.4-0.3-0.7v-89.1c0-0.3,0.1-0.5,0.3-0.7
			c0.2-0.2,0.4-0.3,0.7-0.3c0.3,0,0.5,0.1,0.7,0.3c0.2,0.2,0.3,0.4,0.3,0.7v89.1c0,0.3-0.1,0.5-0.3,0.7
			C614.3,521.7,614.1,521.8,613.8,521.8z"/>
		<path class="st2" d="M613.8,446.3c-0.2,0-0.4-0.1-0.6-0.2c-0.2-0.1-0.3-0.3-0.4-0.4c-0.1-0.2-0.1-0.4-0.1-0.6
			c0-0.2,0.1-0.4,0.3-0.5l13.1-13.1c0.2-0.2,0.4-0.3,0.7-0.3c0.3,0,0.5,0.1,0.7,0.3c0.2,0.2,0.3,0.4,0.3,0.7c0,0.3-0.1,0.5-0.3,0.7
			L614.5,446c-0.1,0.1-0.2,0.2-0.3,0.2C614.1,446.3,613.9,446.3,613.8,446.3z"/>
		<path class="st4" d="M283.8,176.4h-16c-1.2,0-2.3-0.5-3.2-1.3c-0.8-0.8-1.3-2-1.3-3.2v-37c0-1.2,0.5-2.3,1.3-3.2
			c0.8-0.8,2-1.3,3.2-1.3h16c1.2,0,2.3,0.5,3.2,1.3c0.8,0.8,1.3,2,1.3,3.2v37c0,1.2-0.5,2.3-1.3,3.2
			C286.1,175.9,285,176.4,283.8,176.4L283.8,176.4z"/>
		<path class="st4" d="M346.8,521.4h-82c-2.3,0-4.4-0.9-6-2.5c-1.6-1.6-2.5-3.8-2.5-6v-331c0-2.3,0.9-4.4,2.5-6
			c1.6-1.6,3.8-2.5,6-2.5h82c2.3,0,4.4,0.9,6,2.5c1.6,1.6,2.5,3.8,2.5,6v331c0,2.3-0.9,4.4-2.5,6C351.2,520.5,349,521.4,346.8,521.4
			L346.8,521.4z"/>
		<path class="st1" d="M297.8,521.4h-82c-2.3,0-4.4-0.9-6-2.5c-1.6-1.6-2.5-3.8-2.5-6v-331c0-2.3,0.9-4.4,2.5-6
			c1.6-1.6,3.8-2.5,6-2.5h82c2.3,0,4.4,0.9,6,2.5s2.5,3.8,2.5,6v331c0,2.3-0.9,4.4-2.5,6C302.2,520.5,300,521.4,297.8,521.4
			L297.8,521.4z"/>
		<path class="st1" d="M268.8,176.4h-16c-1.2,0-2.3-0.5-3.2-1.3c-0.8-0.8-1.3-2-1.3-3.2v-37c0-1.2,0.5-2.3,1.3-3.2
			c0.8-0.8,2-1.3,3.2-1.3h16c1.2,0,2.3,0.5,3.2,1.3c0.8,0.8,1.3,2,1.3,3.2v37c0,1.2-0.5,2.3-1.3,3.2
			C271.1,175.9,270,176.4,268.8,176.4L268.8,176.4z"/>
		<path class="st5" d="M247.8,248.4h-19c-0.7,0-1.3-0.3-1.8-0.7c-0.5-0.5-0.7-1.1-0.7-1.8v-29c0-0.7,0.3-1.3,0.7-1.8
			c0.5-0.5,1.1-0.7,1.8-0.7h19c0.7,0,1.3,0.3,1.8,0.7c0.5,0.5,0.7,1.1,0.7,1.8v29c0,0.7-0.3,1.3-0.7,1.8
			C249.1,248.1,248.5,248.4,247.8,248.4L247.8,248.4z"/>
		<path class="st5" d="M284.8,248.4h-19c-0.7,0-1.3-0.3-1.8-0.7c-0.5-0.5-0.7-1.1-0.7-1.8v-29c0-0.7,0.3-1.3,0.7-1.8
			c0.5-0.5,1.1-0.7,1.8-0.7h19c0.7,0,1.3,0.3,1.8,0.7c0.5,0.5,0.7,1.1,0.7,1.8v29c0,0.7-0.3,1.3-0.7,1.8
			C286.1,248.1,285.5,248.4,284.8,248.4L284.8,248.4z"/>
		<path class="st5" d="M247.8,301.4h-19c-0.7,0-1.3-0.3-1.8-0.7c-0.5-0.5-0.7-1.1-0.7-1.8v-29c0-0.7,0.3-1.3,0.7-1.8
			c0.5-0.5,1.1-0.7,1.8-0.7h19c0.7,0,1.3,0.3,1.8,0.7c0.5,0.5,0.7,1.1,0.7,1.8v29c0,0.7-0.3,1.3-0.7,1.8
			C249.1,301.1,248.5,301.4,247.8,301.4L247.8,301.4z"/>
		<path class="st5" d="M284.8,301.4h-19c-0.7,0-1.3-0.3-1.8-0.7c-0.5-0.5-0.7-1.1-0.7-1.8v-29c0-0.7,0.3-1.3,0.7-1.8
			c0.5-0.5,1.1-0.7,1.8-0.7h19c0.7,0,1.3,0.3,1.8,0.7c0.5,0.5,0.7,1.1,0.7,1.8v29c0,0.7-0.3,1.3-0.7,1.8
			C286.1,301.1,285.5,301.4,284.8,301.4L284.8,301.4z"/>
		<path class="st5" d="M247.8,354.4h-19c-0.7,0-1.3-0.3-1.8-0.7c-0.5-0.5-0.7-1.1-0.7-1.8v-29c0-0.7,0.3-1.3,0.7-1.8
			c0.5-0.5,1.1-0.7,1.8-0.7h19c0.7,0,1.3,0.3,1.8,0.7c0.5,0.5,0.7,1.1,0.7,1.8v29c0,0.7-0.3,1.3-0.7,1.8
			C249.1,354.1,248.5,354.4,247.8,354.4L247.8,354.4z"/>
		<path class="st5" d="M284.8,354.4h-19c-0.7,0-1.3-0.3-1.8-0.7c-0.5-0.5-0.7-1.1-0.7-1.8v-29c0-0.7,0.3-1.3,0.7-1.8
			c0.5-0.5,1.1-0.7,1.8-0.7h19c0.7,0,1.3,0.3,1.8,0.7c0.5,0.5,0.7,1.1,0.7,1.8v29c0,0.7-0.3,1.3-0.7,1.8
			C286.1,354.1,285.5,354.4,284.8,354.4L284.8,354.4z"/>
		<path class="st5" d="M247.8,407.4h-19c-0.7,0-1.3-0.3-1.8-0.7c-0.5-0.5-0.7-1.1-0.7-1.8v-29c0-0.7,0.3-1.3,0.7-1.8
			c0.5-0.5,1.1-0.7,1.8-0.7h19c0.7,0,1.3,0.3,1.8,0.7c0.5,0.5,0.7,1.1,0.7,1.8v29c0,0.7-0.3,1.3-0.7,1.8
			C249.1,407.1,248.5,407.4,247.8,407.4L247.8,407.4z"/>
		<path class="st5" d="M284.8,407.4h-19c-0.7,0-1.3-0.3-1.8-0.7c-0.5-0.5-0.7-1.1-0.7-1.8v-29c0-0.7,0.3-1.3,0.7-1.8
			c0.5-0.5,1.1-0.7,1.8-0.7h19c0.7,0,1.3,0.3,1.8,0.7c0.5,0.5,0.7,1.1,0.7,1.8v29c0,0.7-0.3,1.3-0.7,1.8
			C286.1,407.1,285.5,407.4,284.8,407.4L284.8,407.4z"/>
		<path class="st5" d="M247.8,460.4h-19c-0.7,0-1.3-0.3-1.8-0.7c-0.5-0.5-0.7-1.1-0.7-1.8v-29c0-0.7,0.3-1.3,0.7-1.8
			c0.5-0.5,1.1-0.7,1.8-0.7h19c0.7,0,1.3,0.3,1.8,0.7c0.5,0.5,0.7,1.1,0.7,1.8v29c0,0.7-0.3,1.3-0.7,1.8
			C249.1,460.1,248.5,460.4,247.8,460.4L247.8,460.4z"/>
		<path class="st5" d="M284.8,460.4h-19c-0.7,0-1.3-0.3-1.8-0.7c-0.5-0.5-0.7-1.1-0.7-1.8v-29c0-0.7,0.3-1.3,0.7-1.8
			c0.5-0.5,1.1-0.7,1.8-0.7h19c0.7,0,1.3,0.3,1.8,0.7c0.5,0.5,0.7,1.1,0.7,1.8v29c0,0.7-0.3,1.3-0.7,1.8
			C286.1,460.1,285.5,460.4,284.8,460.4L284.8,460.4z"/>
		<path class="st4" d="M696.8,351.4h-16c-1.2,0-2.3-0.5-3.2-1.3c-0.8-0.8-1.3-2-1.3-3.2v-21c0-1.2,0.5-2.3,1.3-3.2
			c0.8-0.8,2-1.3,3.2-1.3h16c1.2,0,2.3,0.5,3.2,1.3c0.8,0.8,1.3,2,1.3,3.2v21c0,1.2-0.5,2.3-1.3,3.2
			C699.1,350.9,698,351.4,696.8,351.4z"/>
		<path class="st4" d="M831.8,522.4h-82c-2.3,0-4.4-0.9-6-2.5c-1.6-1.6-2.5-3.8-2.5-6v-159c0-2.3,0.9-4.4,2.5-6
			c1.6-1.6,3.8-2.5,6-2.5h82c2.3,0,4.4,0.9,6,2.5c1.6,1.6,2.5,3.8,2.5,6v159c0,2.3-0.9,4.4-2.5,6C836.2,521.5,834,522.4,831.8,522.4
			L831.8,522.4z"/>
		<path class="st1" d="M782.8,522.4h-142c-2.3,0-4.4-0.9-6-2.5c-1.6-1.6-2.5-3.8-2.5-6v-159c0-2.3,0.9-4.4,2.5-6
			c1.6-1.6,3.8-2.5,6-2.5h142c2.3,0,4.4,0.9,6,2.5c1.6,1.6,2.5,3.8,2.5,6v159c0,2.3-0.9,4.4-2.5,6
			C787.2,521.5,785,522.4,782.8,522.4L782.8,522.4z"/>
		<path class="st1" d="M681.8,351.4h-16c-1.2,0-2.3-0.5-3.2-1.3c-0.8-0.8-1.3-2-1.3-3.2v-21c0-1.2,0.5-2.3,1.3-3.2
			c0.8-0.8,2-1.3,3.2-1.3h16c1.2,0,2.3,0.5,3.2,1.3c0.8,0.8,1.3,2,1.3,3.2v21c0,1.2-0.5,2.3-1.3,3.2
			C684.1,350.9,683,351.4,681.8,351.4L681.8,351.4z"/>
		<path class="st5" d="M702.8,424.9h-19c-0.7,0-1.3-0.3-1.8-0.7s-0.7-1.1-0.7-1.8v-29c0-0.7,0.3-1.3,0.7-1.8
			c0.5-0.5,1.1-0.7,1.8-0.7h19c0.7,0,1.3,0.3,1.8,0.7c0.5,0.5,0.7,1.1,0.7,1.8v29c0,0.7-0.3,1.3-0.7,1.8S703.5,424.9,702.8,424.9
			L702.8,424.9z"/>
		<path class="st5" d="M739.8,424.9h-19c-0.7,0-1.3-0.3-1.8-0.7s-0.7-1.1-0.7-1.8v-29c0-0.7,0.3-1.3,0.7-1.8
			c0.5-0.5,1.1-0.7,1.8-0.7h19c0.7,0,1.3,0.3,1.8,0.7c0.5,0.5,0.7,1.1,0.7,1.8v29c0,0.7-0.3,1.3-0.7,1.8S740.5,424.9,739.8,424.9
			L739.8,424.9z"/>
		<path class="st5" d="M702.8,477.9h-19c-0.7,0-1.3-0.3-1.8-0.7s-0.7-1.1-0.7-1.8v-29c0-0.7,0.3-1.3,0.7-1.8
			c0.5-0.5,1.1-0.7,1.8-0.7h19c0.7,0,1.3,0.3,1.8,0.7c0.5,0.5,0.7,1.1,0.7,1.8v29c0,0.7-0.3,1.3-0.7,1.8S703.5,477.9,702.8,477.9
			L702.8,477.9z"/>
		<path class="st5" d="M739.8,477.9h-19c-0.7,0-1.3-0.3-1.8-0.7s-0.7-1.1-0.7-1.8v-29c0-0.7,0.3-1.3,0.7-1.8
			c0.5-0.5,1.1-0.7,1.8-0.7h19c0.7,0,1.3,0.3,1.8,0.7c0.5,0.5,0.7,1.1,0.7,1.8v29c0,0.7-0.3,1.3-0.7,1.8S740.5,477.9,739.8,477.9z"
			/>
		<path class="st4" d="M1046.8,522.9H1c-0.3,0-0.5-0.1-0.7-0.3c-0.2-0.2-0.3-0.4-0.3-0.7c0-0.3,0.1-0.5,0.3-0.7
			c0.2-0.2,0.4-0.3,0.7-0.3h1045.8c0.3,0,0.5,0.1,0.7,0.3s0.3,0.4,0.3,0.7c0,0.3-0.1,0.5-0.3,0.7
			C1047.3,522.8,1047.1,522.9,1046.8,522.9z"/>
		<path class="st4" d="M362.8,557.9h-93c-0.3,0-0.5-0.1-0.7-0.3c-0.2-0.2-0.3-0.4-0.3-0.7c0-0.3,0.1-0.5,0.3-0.7
			c0.2-0.2,0.4-0.3,0.7-0.3h93c0.3,0,0.5,0.1,0.7,0.3c0.2,0.2,0.3,0.4,0.3,0.7c0,0.3-0.1,0.5-0.3,0.7
			C363.3,557.8,363.1,557.9,362.8,557.9z"/>
		<path class="st4" d="M593.8,557.9h-93c-0.3,0-0.5-0.1-0.7-0.3c-0.2-0.2-0.3-0.4-0.3-0.7c0-0.3,0.1-0.5,0.3-0.7
			c0.2-0.2,0.4-0.3,0.7-0.3h93c0.3,0,0.5,0.1,0.7,0.3s0.3,0.4,0.3,0.7c0,0.3-0.1,0.5-0.3,0.7C594.3,557.8,594.1,557.9,593.8,557.9z"
			/>
		<path class="st4" d="M824.8,557.9h-93c-0.3,0-0.5-0.1-0.7-0.3c-0.2-0.2-0.3-0.4-0.3-0.7c0-0.3,0.1-0.5,0.3-0.7
			c0.2-0.2,0.4-0.3,0.7-0.3h93c0.3,0,0.5,0.1,0.7,0.3s0.3,0.4,0.3,0.7c0,0.3-0.1,0.5-0.3,0.7C825.3,557.8,825.1,557.9,824.8,557.9z"
			/>
		<path class="st4" d="M415.8,450.3c0-17.7-14.3-59.6-32-59.6c-17.7,0-32,41.9-32,59.6c0,8.5,3.4,16.6,9.4,22.6
			c6,6,14.1,9.4,22.6,9.4c8.5,0,16.6-3.4,22.6-9.4C412.4,466.9,415.8,458.7,415.8,450.3L415.8,450.3z"/>
		<path class="st1" d="M407.8,450.3c0-17.7-14.3-59.6-32-59.6c-17.7,0-32,41.9-32,59.6c0,8.5,3.4,16.6,9.4,22.6
			c6,6,14.1,9.4,22.6,9.4c8.5,0,16.6-3.4,22.6-9.4C404.4,466.9,407.8,458.7,407.8,450.3L407.8,450.3z"/>
		<path class="st2" d="M376.8,521.8c-0.3,0-0.5-0.1-0.7-0.3c-0.2-0.2-0.3-0.4-0.3-0.7v-89.1c0-0.3,0.1-0.5,0.3-0.7
			c0.2-0.2,0.4-0.3,0.7-0.3c0.3,0,0.5,0.1,0.7,0.3c0.2,0.2,0.3,0.4,0.3,0.7v89.1c0,0.3-0.1,0.5-0.3,0.7
			C377.3,521.7,377.1,521.8,376.8,521.8z"/>
		<path class="st2" d="M376.8,446.3c-0.2,0-0.4-0.1-0.6-0.2c-0.2-0.1-0.3-0.3-0.4-0.4c-0.1-0.2-0.1-0.4-0.1-0.6
			c0-0.2,0.1-0.4,0.3-0.5l13.1-13.1c0.2-0.2,0.4-0.3,0.7-0.3c0.3,0,0.5,0.1,0.7,0.3c0.2,0.2,0.3,0.4,0.3,0.7c0,0.3-0.1,0.5-0.3,0.7
			L377.5,446c-0.1,0.1-0.2,0.2-0.3,0.2C377.1,446.3,376.9,446.3,376.8,446.3z"/>
		<path class="st4" d="M926.8,450.3c0-17.7-14.3-59.6-32-59.6c-17.7,0-32,41.9-32,59.6c0,8.5,3.4,16.6,9.4,22.6
			c6,6,14.1,9.4,22.6,9.4s16.6-3.4,22.6-9.4C923.4,466.9,926.8,458.7,926.8,450.3L926.8,450.3z"/>
		<path class="st1" d="M918.8,450.3c0-17.7-14.3-59.6-32-59.6c-17.7,0-32,41.9-32,59.6c0,8.5,3.4,16.6,9.4,22.6
			c6,6,14.1,9.4,22.6,9.4s16.6-3.4,22.6-9.4C915.4,466.9,918.8,458.7,918.8,450.3L918.8,450.3z"/>
		<path class="st2" d="M887.8,521.8c-0.3,0-0.5-0.1-0.7-0.3c-0.2-0.2-0.3-0.4-0.3-0.7v-89.1c0-0.3,0.1-0.5,0.3-0.7
			c0.2-0.2,0.4-0.3,0.7-0.3c0.3,0,0.5,0.1,0.7,0.3c0.2,0.2,0.3,0.4,0.3,0.7v89.1c0,0.3-0.1,0.5-0.3,0.7
			C888.3,521.7,888.1,521.8,887.8,521.8z"/>
		<path class="st2" d="M887.8,446.3c-0.2,0-0.4-0.1-0.6-0.2c-0.2-0.1-0.3-0.3-0.4-0.4c-0.1-0.2-0.1-0.4-0.1-0.6
			c0-0.2,0.1-0.4,0.3-0.5l13.1-13.1c0.2-0.2,0.4-0.3,0.7-0.3c0.3,0,0.5,0.1,0.7,0.3c0.2,0.2,0.3,0.4,0.3,0.7c0,0.3-0.1,0.5-0.3,0.7
			L888.5,446c-0.1,0.1-0.2,0.2-0.3,0.2C888.1,446.3,887.9,446.3,887.8,446.3L887.8,446.3z"/>
		<path class="st3" d="M556.8,461.4h-22c-0.7,0-1.3-0.3-1.8-0.7s-0.7-1.1-0.7-1.8v-22c0-0.7,0.3-1.3,0.7-1.8s1.1-0.7,1.8-0.7h22
			c0.7,0,1.3,0.3,1.8,0.7s0.7,1.1,0.7,1.8v22c0,0.7-0.3,1.3-0.7,1.8S557.5,461.4,556.8,461.4z"/>
		<path class="st6" d="M770.4,472.1c0.2,0.1,0.5,0.2,0.7,0.3s0.3,0.4,0.5,0.6c0.1,0.2,0.2,0.5,0.2,0.7c0,0.2-0.1,0.5-0.2,0.7
			l4.3,4.2l-3.1,0.7l-3.7-4.1c-0.4-0.2-0.6-0.5-0.8-0.9c-0.1-0.4-0.1-0.8,0-1.2c0.2-0.4,0.4-0.7,0.8-0.9
			C769.5,472,770,472,770.4,472.1L770.4,472.1z"/>
		<path class="st7" d="M776.5,483.1l-5.4-5c-0.1-0.1-0.1-0.2-0.2-0.2c0-0.1-0.1-0.2-0.1-0.3c0-0.1,0-0.2,0.1-0.3
			c0-0.1,0.1-0.2,0.2-0.3l1.1-1.1c0.1-0.1,0.3-0.2,0.5-0.2c0.2,0,0.4,0,0.5,0.2l4.5,3.4l2.8-6.8c0.1-0.3,0.3-0.5,0.5-0.7
			c0.2-0.2,0.5-0.4,0.7-0.5c0.3-0.1,0.6-0.1,0.9-0.1c0.3,0,0.6,0.1,0.8,0.2l0,0c0.4,0.2,0.7,0.5,1,0.9c0.2,0.4,0.3,0.9,0.2,1.3
			c-0.5,3.1-3.6,7.2-5.4,9.3c-0.2,0.3-0.6,0.5-0.9,0.6s-0.8,0.1-1.1-0.1C776.9,483.4,776.7,483.3,776.5,483.1L776.5,483.1z"/>
		<path class="st5" d="M773.5,478.2l-3.9-5.7c-0.1-0.1-0.1-0.2-0.1-0.3c0-0.1,0.1-0.2,0.1-0.2l0.2-0.1c0,0,0.1,0,0.1-0.1
			c0,0,0.1,0,0.1,0c0,0,0.1,0,0.1,0c0,0,0.1,0.1,0.1,0.1l3.9,5.7c0,0,0,0.1,0.1,0.1c0,0,0,0.1,0,0.1c0,0,0,0.1,0,0.1
			c0,0-0.1,0.1-0.1,0.1l-0.2,0.1c-0.1,0.1-0.2,0.1-0.3,0.1S773.5,478.3,773.5,478.2L773.5,478.2z"/>
		<path class="st3" d="M772.4,478.3l-3.3-4.8c-0.1-0.2-0.2-0.5-0.1-0.7c0-0.2,0.2-0.5,0.4-0.6l0.3-0.2l4.3,6.3l-0.3,0.2
			c-0.2,0.1-0.5,0.2-0.7,0.1C772.7,478.6,772.5,478.5,772.4,478.3L772.4,478.3z"/>
		<path class="st6" d="M772.8,519.3l-2.1-0.2l0.3-8l2.7,0.3L772.8,519.3z"/>
		<path class="st8" d="M773.1,521.4l-6.6-0.8l0-0.1c0-0.3,0.1-0.7,0.3-1c0.2-0.3,0.4-0.6,0.7-0.8c0.3-0.2,0.6-0.4,0.9-0.5
			c0.3-0.1,0.7-0.1,1-0.1l0,0l4.1,0.5L773.1,521.4z"/>
		<path class="st6" d="M796.7,517.8l-2,0.6l-3.3-7.3l2.9-0.9L796.7,517.8z"/>
		<path class="st8" d="M797.8,519.5l-6.4,2l0-0.1c-0.1-0.3-0.1-0.7-0.1-1c0-0.3,0.1-0.7,0.3-1c0.2-0.3,0.4-0.6,0.6-0.8
			s0.6-0.4,0.9-0.5l0,0l3.9-1.2L797.8,519.5z"/>
		<path class="st8" d="M770.5,517.5c-0.2-0.1-0.4-0.2-0.5-0.4s-0.1-0.4-0.1-0.6l1.2-14.3c0.1-0.7,0.3-1.3,0.6-1.8l7.5-12.5l6.7,1.2
			l0,0c3.3,2,6.2,11.7,9,21.1c0.4,1.5,0.9,3,1.3,4.4c0.1,0.2,0.1,0.4,0,0.6c-0.1,0.2-0.2,0.4-0.5,0.5l-2,0.9c-0.2,0.1-0.4,0.1-0.6,0
			c-0.2-0.1-0.4-0.2-0.5-0.4L782.3,497c0,0,0,0-0.1-0.1c0,0,0,0-0.1,0c0,0-0.1,0-0.1,0c0,0,0,0-0.1,0l-6.1,6.9l-2.2,13.1l0,0
			c-0.1,0.2-0.2,0.3-0.4,0.4c-0.2,0.1-0.4,0.1-0.6,0.1L770.5,517.5L770.5,517.5L770.5,517.5z"/>
		<path class="st7" d="M778.9,489.2L778.9,489.2L778.9,489.2c-0.1-0.2-3.2-10.6-0.4-17.2l0,0c0.1-0.2,2-3.9,4.3-4.2l0.1,0l0.7,1.4
			c0.2,0.2,4.2,4.3,2.4,11.4c0.2,0.6,2.3,8.5,1.2,9.7c-0.4,0.3-1,0.4-1.5,0.4C783.3,490.4,781.1,489.9,778.9,489.2L778.9,489.2z"/>
		<path class="st8" d="M782.3,466.5c2.9,0,5.2-2.3,5.2-5.2s-2.3-5.2-5.2-5.2c-2.9,0-5.2,2.3-5.2,5.2S779.4,466.5,782.3,466.5z"/>
		<path class="st6" d="M780.2,466.4c2.3,0,4.2-1.9,4.2-4.2c0-2.3-1.9-4.2-4.2-4.2c-2.3,0-4.2,1.9-4.2,4.2
			C776.1,464.6,777.9,466.4,780.2,466.4z"/>
		<path class="st8" d="M782.9,466.3c-0.4,0.1-0.8,0.3-1.1,0c-0.1-0.2-0.2-0.4-0.2-0.6c0-0.2,0-0.4,0.1-0.6c0.2-0.3,0.4-0.7,0.5-1.1
			c0-0.3,0-0.6-0.1-0.9c-0.1-0.3-0.3-0.5-0.5-0.7c-0.5-0.3-1-0.6-1.5-0.8l-2.9-1c-0.8-0.2-1.4-0.6-1.9-1.2c-0.2-0.5-0.3-1.1-0.1-1.6
			c0.2-0.5,0.5-1,1-1.3c0.5-0.2,1-0.4,1.6-0.4c0.6,0,1.1,0.1,1.6,0.3c0.6,0.3,1.1,0.5,1.7,0.7c1.2,0.3,2.5,0,3.5,0.7
			c0.4,0.3,0.8,0.8,1,1.3c0.2,0.5,0.3,1,0.3,1.6c-0.1,1.1-0.4,2.1-0.9,3.1c-0.2,0.6-0.5,1.2-0.9,1.7c-0.2,0.2-0.5,0.4-0.7,0.6
			c-0.3,0.1-0.6,0.2-0.9,0.2L782.9,466.3z"/>
		<path class="st8" d="M786.7,462.1c1.9,0,3.4-1.5,3.4-3.4s-1.5-3.4-3.4-3.4c-1.9,0-3.4,1.5-3.4,3.4S784.8,462.1,786.7,462.1z"/>
		<path class="st5" d="M781.1,463.6c0-0.1,0-0.1,0-0.2c0-0.1,0.1-0.1,0.1-0.1c0.1,0,0.1,0,0.2,0c0.1,0,0.1,0,0.2,0.1
			c0.1,0,0.1,0.1,0.1,0.1c0,0.1,0,0.1,0,0.2c0,0.1,0,0.1-0.1,0.2c0,0-0.1,0.1-0.1,0.1v0.7c0,0,0,0,0,0c0,0,0,0,0,0c0,0,0,0,0,0
			c0,0,0,0,0,0c0,0,0,0,0,0c0,0,0,0,0,0c0,0,0,0,0,0c0,0,0,0,0,0v-0.7c-0.1,0-0.1-0.1-0.2-0.1C781.1,463.7,781.1,463.7,781.1,463.6
			L781.1,463.6z"/>
		<path class="st6" d="M770.6,475.6c0.2,0,0.5,0,0.7,0.1c0.2,0.1,0.4,0.2,0.6,0.4c0.2,0.2,0.3,0.4,0.4,0.6c0.1,0.2,0.1,0.5,0.1,0.7
			l5.5,2.4l-2.6,1.7l-4.9-2.6c-0.4-0.1-0.8-0.3-1.1-0.6s-0.4-0.7-0.4-1.1c0-0.4,0.2-0.8,0.5-1.1
			C769.8,475.9,770.2,475.7,770.6,475.6z"/>
		<path class="st9" d="M780.1,483.8l-6.8-2.8c-0.1,0-0.2-0.1-0.2-0.2c-0.1-0.1-0.1-0.2-0.2-0.3c0-0.1-0.1-0.2-0.1-0.3
			c0-0.1,0-0.2,0.1-0.3l0.6-1.4c0.1-0.2,0.2-0.3,0.4-0.4c0.2-0.1,0.4-0.1,0.5,0l5.4,1.7l0.3-7.4c0-0.3,0.1-0.6,0.2-0.8
			c0.1-0.3,0.3-0.5,0.5-0.7c0.2-0.2,0.5-0.3,0.8-0.4c0.3-0.1,0.6-0.1,0.9-0.1l0,0c0.5,0,0.9,0.2,1.2,0.5c0.3,0.3,0.6,0.7,0.7,1.2
			c0.6,3.1-0.9,8-1.8,10.6c-0.1,0.4-0.4,0.7-0.7,0.9c-0.3,0.2-0.7,0.3-1.1,0.3C780.6,484,780.4,483.9,780.1,483.8z"/>
		<path class="st7" d="M84.8,482.1H74.4v-3.2c3.3-2.3,6.2-2.1,10,0.2L84.8,482.1z"/>
		<path class="st6" d="M72,538.1h-2.3l-0.3-8.8H72V538.1z"/>
		<path class="st8" d="M72.6,540.3h-7.3v-0.1c0-0.4,0.1-0.7,0.2-1.1s0.4-0.7,0.6-0.9c0.3-0.3,0.6-0.5,0.9-0.6
			c0.3-0.1,0.7-0.2,1.1-0.2h0l4.5,0L72.6,540.3z"/>
		<path class="st6" d="M84.8,538.1h2.3l0.3-8.8h-2.6L84.8,538.1z"/>
		<path class="st8" d="M84.2,537.4l4.5,0h0c0.4,0,0.7,0.1,1.1,0.2c0.3,0.1,0.7,0.4,0.9,0.6c0.3,0.3,0.5,0.6,0.6,0.9
			c0.1,0.3,0.2,0.7,0.2,1.1v0.1h-7.3L84.2,537.4z"/>
		<path class="st8" d="M84.9,537c-0.2,0-0.4-0.1-0.5-0.2c-0.1-0.1-0.3-0.3-0.3-0.5l-5.6-24.6c0-0.1,0-0.1-0.1-0.2
			c0,0-0.1-0.1-0.2-0.1h0c-0.1,0-0.1,0-0.2,0.1c0,0-0.1,0.1-0.1,0.2l-5.2,24.4c0,0.2-0.1,0.4-0.3,0.5c-0.1,0.1-0.3,0.2-0.5,0.2h-2.5
			c-0.1,0-0.2,0-0.3-0.1c-0.1,0-0.2-0.1-0.3-0.2s-0.1-0.2-0.2-0.3c0-0.1-0.1-0.2,0-0.3l1.8-30.9l0.7-0.2h0l14.5,0.1l3.1,30.9
			c0,0.1,0,0.2,0,0.3c0,0.1-0.1,0.2-0.2,0.3c-0.1,0.1-0.2,0.2-0.3,0.2c-0.1,0.1-0.2,0.1-0.3,0.1L84.9,537
			C84.9,537,84.9,537,84.9,537z"/>
		<path class="st6" d="M78.9,476.4c2.5,0,4.6-2,4.6-4.6s-2-4.6-4.6-4.6c-2.5,0-4.6,2-4.6,4.6S76.4,476.4,78.9,476.4z"/>
		<path class="st3" d="M76.1,508.4c-0.8,0-1.6-0.1-2.4-0.3c-0.7-0.2-1.3-0.5-1.9-1c-0.5-0.5-1-1-1.3-1.7c-0.1-0.2-0.1-0.4-0.1-0.6
			c0.5-1.7,2.9-10.6,1.4-17.7c-0.2-1-0.2-2-0.1-3c0.2-1,0.6-1.9,1.1-2.8c0.5-0.8,1.2-1.5,2.1-2.1c0.8-0.6,1.8-0.9,2.7-1.1l0,0
			c0.3,0,0.5-0.1,0.8-0.1c1.1-0.1,2.2,0,3.2,0.3c1,0.3,2,0.9,2.8,1.7c0.8,0.8,1.4,1.7,1.9,2.7c0.4,1,0.6,2.2,0.5,3.3L85.7,505
			c0,0.1-0.1,0.3-0.1,0.4c-0.1,0.1-0.2,0.2-0.3,0.3C83.9,506.4,79.8,508.4,76.1,508.4z"/>
		<path class="st8" d="M84,468.5c-0.5-1.2-1.3-2.2-2.5-2.8c-1.1-0.6-2.4-0.9-3.7-0.6l1.4,1.2c-1.8,0.1-3.7-0.1-4.9,1.2
			c0.4,0,0.9,0.9,1.3,0.8c-0.4,0-0.7,0.2-1.1,0.4c-0.3,0.2-0.6,0.5-0.7,0.9c-0.3,0.7-0.4,1.5-0.2,2.2c0.5,1.1,1,2.2,1.6,3.2
			c-0.1-1.8,3.5-6.1,5.3-5.7c-0.9,0.3-1.7,0.9-2.2,1.7c1.2-0.6,2.5-0.8,3.8-0.6c0.3,0.1,0.6,0.1,0.9,0.1c0.2,0,0.4-0.1,0.5-0.2
			c0.1-0.1,0.3-0.3,0.3-0.5c0.1-0.2,0.1-0.4,0.1-0.6c0-0.2-0.1-0.4-0.2-0.5L84,468.5z"/>
		<path class="st9" d="M75.8,507.2c-0.1,0-0.2,0-0.3-0.1l-8.6-3.8c-0.2-0.1-0.3-0.2-0.4-0.4c-0.1-0.2-0.1-0.4-0.1-0.6l5.7-21.6
			c0.1-0.4,0.3-0.8,0.5-1.1c0.3-0.3,0.6-0.6,0.9-0.8c0.4-0.2,0.8-0.3,1.2-0.4c0.4,0,0.8,0,1.2,0.1l2.3,0.7l-1.6,27.2
			c0,0.1,0,0.3-0.1,0.4c-0.1,0.1-0.2,0.2-0.3,0.3C76.1,507.2,75.9,507.2,75.8,507.2L75.8,507.2z"/>
		<path class="st9" d="M91.8,502.4l-0.4-1.4l-0.6-2.1l-0.3-1l-0.6-2.1l-4-15c-0.1-0.4-0.3-0.8-0.5-1.1c-0.3-0.3-0.6-0.6-0.9-0.8
			c-0.4-0.2-0.8-0.3-1.2-0.4c-0.4,0-0.8,0-1.2,0.1l-2.3,0.7l1.1,19.1l0.1,2l0.1,1.3v0l0.1,2l0.2,2.8c0,0.2,0.1,0.4,0.3,0.6
			c0.2,0.1,0.4,0.2,0.6,0.2c0.1,0,0.2,0,0.3-0.1l8.6-3.8c0.2-0.1,0.3-0.2,0.4-0.4C91.8,502.8,91.8,502.6,91.8,502.4z"/>
		<path class="st2" d="M90.6,497.9l-9.4,2.5l-0.1-2l9-2.6L90.6,497.9z"/>
		<path class="st2" d="M91.4,501l-10.1,2.6l-0.1-2v0l9.6-2.7L91.4,501z"/>
		<path class="st2" d="M77,498.8l-0.1,2l-9.3-2.8l0.5-2.1L77,498.8z"/>
		<path class="st2" d="M76.8,502.1l-9.5-3.1l-0.5,2.1l9.9,2.9L76.8,502.1z"/>
		<path class="st6" d="M67.5,504.1c0.3-0.1,0.5-0.2,0.8-0.4c0.2-0.2,0.4-0.4,0.5-0.7c0.1-0.3,0.2-0.6,0.2-0.8c0-0.3-0.1-0.6-0.2-0.8
			l4.4-14l-3.2-0.7L66,500.4c-0.4,0.2-0.8,0.6-0.9,1.1c-0.2,0.5-0.2,1,0,1.4c0.2,0.5,0.5,0.8,1,1C66.5,504.2,67,504.2,67.5,504.1
			L67.5,504.1z"/>
		<path class="st3" d="M73.4,480.5c0.9,0.1,1.4,1.1,1.2,2.4l-1.1,6.1c-0.1,0.5-0.5,0.8-0.8,0.7l-3.7-0.9c-0.3-0.1-0.4-0.5-0.2-0.9
			l2.2-5.5c0.1-0.5,0.5-1,0.9-1.3C72.3,480.8,72.8,480.6,73.4,480.5z"/>
		<path class="st9" d="M78.9,463.4c1.5,0,3,0.6,4.1,1.7c1.1,1.1,1.8,2.5,1.8,4.1h1.1c0.1,0,0.2,0,0.3,0.1c0.1,0.1,0.1,0.2,0.1,0.3
			v1.5c0,0.1,0,0.2-0.1,0.3c-0.1,0.1-0.2,0.1-0.3,0.1H73.3c-0.1,0-0.2,0-0.3-0.1c-0.1-0.1-0.1-0.2-0.1-0.3v-1.7
			c0-0.8,0.2-1.6,0.5-2.3c0.3-0.7,0.7-1.4,1.3-1.9c0.6-0.6,1.2-1,1.9-1.3C77.3,463.5,78.1,463.4,78.9,463.4L78.9,463.4z"/>
		<path class="st4" d="M79.6,500h-2.6c-0.1,0-0.2,0-0.2-0.1c-0.1-0.1-0.1-0.1-0.1-0.2l-0.5-5.4h4.3l-0.5,5.4c0,0.1,0,0.2-0.1,0.2
			C79.7,500,79.7,500,79.6,500z"/>
		<path class="st2" d="M80.4,495h-4.3c-0.1,0-0.2,0-0.2-0.1c-0.1-0.1-0.1-0.1-0.1-0.2v-0.8c0-0.1,0-0.2,0.1-0.2
			c0.1-0.1,0.1-0.1,0.2-0.1h4.3c0.1,0,0.2,0,0.2,0.1c0.1,0.1,0.1,0.1,0.1,0.2v0.8c0,0.1,0,0.2-0.1,0.2C80.6,495,80.5,495,80.4,495
			L80.4,495z"/>
		<path class="st6" d="M78.3,497.2c0.1,0,0.2,0,0.3,0.1l7-6l-0.4-2.2l3.2-1l1.1,3.8c0.1,0.3,0.1,0.6,0,0.9c-0.1,0.3-0.3,0.6-0.6,0.7
			l-8.8,5.6c0,0.4-0.1,0.8-0.3,1.1c-0.2,0.3-0.5,0.6-0.9,0.7c-0.4,0.1-0.8,0.2-1.2,0.1s-0.7-0.3-1-0.6c-0.3-0.3-0.4-0.7-0.5-1
			c-0.1-0.4,0-0.8,0.2-1.1c0.2-0.4,0.5-0.6,0.8-0.8C77.5,497.2,77.9,497.1,78.3,497.2L78.3,497.2z"/>
		<path class="st3" d="M85.6,481c1-0.3,1.9,0.5,2.3,1.7l1.6,6c0.1,0.5-0.1,0.9-0.5,1l-4.1,0.6c-0.3,0-0.6-0.3-0.6-0.7l-0.2-5.9
			c-0.1-0.6,0.1-1.1,0.3-1.6C84.7,481.6,85.1,481.3,85.6,481z"/>
		<path class="st4" d="M132.6,497.3h-3.1c-0.1,0-0.2,0-0.3-0.1s-0.1-0.2-0.1-0.3l-0.6-6.5h5.2l-0.6,6.5c0,0.1-0.1,0.2-0.1,0.3
			C132.8,497.3,132.7,497.3,132.6,497.3L132.6,497.3z"/>
		<path class="st2" d="M133.7,491.3h-5.2c-0.1,0-0.2,0-0.3-0.1c-0.1-0.1-0.1-0.2-0.1-0.3v-1c0-0.1,0-0.2,0.1-0.3
			c0.1-0.1,0.2-0.1,0.3-0.1h5.2c0.1,0,0.2,0,0.3,0.1c0.1,0.1,0.1,0.2,0.1,0.3v1c0,0.1,0,0.2-0.1,0.3
			C133.9,491.3,133.8,491.3,133.7,491.3L133.7,491.3z"/>
		<path class="st2" d="M163.6,535.3c-2.3-3-4.1-6.4-5.4-10c-0.1-0.2-0.1-0.4,0-0.7c0.1-0.2,0.2-0.4,0.4-0.5l7.8-4.2
			c0.1-0.1,0.3-0.1,0.4-0.1c0.1,0,0.3,0,0.4,0.1c0.1,0.1,0.3,0.1,0.3,0.3c0.1,0.1,0.2,0.2,0.2,0.4c0.9,3.5,2.6,6.7,5,9.3
			c0.1,0.1,0.2,0.2,0.2,0.4c0,0.1,0,0.3,0,0.4c0,0.1-0.1,0.3-0.2,0.4c-0.1,0.1-0.2,0.2-0.3,0.3l-7.8,4.2c-0.2,0.1-0.4,0.1-0.7,0.1
			C163.9,535.6,163.7,535.4,163.6,535.3z"/>
		<path class="st5" d="M164.1,534.9c0,0.1,0.1,0.1,0.2,0.1c0.1,0,0.1,0,0.2,0l7.8-4.2c0,0,0.1,0,0.1-0.1c0,0,0-0.1,0-0.1
			c0,0,0-0.1,0-0.1c0,0,0-0.1-0.1-0.1c-2.4-2.8-4.2-6-5.1-9.6c0,0,0-0.1-0.1-0.1c0,0-0.1-0.1-0.1-0.1c0,0-0.1,0-0.1,0s-0.1,0-0.1,0
			l-7.8,4.2c-0.1,0-0.1,0.1-0.1,0.1c0,0.1,0,0.1,0,0.2C160.1,528.6,161.9,531.9,164.1,534.9L164.1,534.9z"/>
		<path class="st2" d="M167,525.9l-4.3,1.9c-0.2,0.1-0.3,0.1-0.5,0c-0.2-0.1-0.3-0.2-0.4-0.4l-0.1-0.2c-0.1-0.2-0.1-0.3,0-0.5
			c0.1-0.2,0.2-0.3,0.4-0.4l4.3-1.9c0.2-0.1,0.3-0.1,0.5,0c0.2,0.1,0.3,0.2,0.4,0.4l0.1,0.2c0.1,0.2,0.1,0.3,0,0.5
			C167.3,525.7,167.2,525.8,167,525.9L167,525.9z"/>
		<path class="st2" d="M168.6,528.8l-4.3,1.9c-0.2,0.1-0.3,0.1-0.5,0c-0.2-0.1-0.3-0.2-0.4-0.4l-0.1-0.2c-0.1-0.2-0.1-0.3,0-0.5
			c0.1-0.2,0.2-0.3,0.4-0.4l4.3-1.9c0.2-0.1,0.3-0.1,0.5,0c0.2,0.1,0.3,0.2,0.4,0.4l0.1,0.2c0.1,0.2,0.1,0.3,0,0.5
			C168.9,528.6,168.7,528.7,168.6,528.8L168.6,528.8z"/>
		<path class="st10" d="M158.6,526.4c-0.3-0.2-0.5-0.4-0.7-0.7c-0.2-0.3-0.3-0.6-0.4-1c0-0.3,0-0.7,0.1-1c0.1-0.3,0.3-0.6,0.5-0.9
			l-1.8-25.5l5.2,0.5l0.1,25c0.4,0.4,0.6,1,0.7,1.6c0,0.6-0.2,1.2-0.6,1.6c-0.4,0.5-0.9,0.8-1.5,0.8
			C159.7,526.8,159.1,526.7,158.6,526.4L158.6,526.4z"/>
		<path class="st3" d="M157.5,505.8c-0.1-0.1-0.2-0.2-0.3-0.3s-0.1-0.3-0.1-0.4l-0.4-6.9c0-0.7,0.2-1.4,0.6-1.9c0.4-0.5,1-0.9,1.7-1
			c0.7-0.1,1.4,0,1.9,0.4c0.6,0.4,1,0.9,1.2,1.6l1.7,6.2c0.1,0.3,0,0.5-0.1,0.8c-0.1,0.2-0.4,0.4-0.6,0.5l-4.7,1.3
			c-0.1,0-0.3,0-0.4,0C157.8,505.9,157.6,505.9,157.5,505.8z"/>
		<path class="st10" d="M148.7,557.8l-2.7,0l-1.3-10.5h4L148.7,557.8z"/>
		<path class="st8" d="M143.4,557h5.9v3.3h-8.6v-0.6c0-0.4,0.1-0.7,0.2-1c0.1-0.3,0.3-0.6,0.6-0.9c0.3-0.3,0.6-0.5,0.9-0.6
			C142.7,557,143,557,143.4,557L143.4,557z"/>
		<path class="st10" d="M158.9,557.8l-2.7,0l-1.3-10.5h4L158.9,557.8z"/>
		<path class="st8" d="M153.6,557h5.9v3.3h-8.6v-0.6c0-0.4,0.1-0.7,0.2-1c0.1-0.3,0.3-0.6,0.6-0.9c0.3-0.3,0.6-0.5,0.9-0.6
			C152.9,557,153.3,557,153.6,557L153.6,557z"/>
		<path class="st8" d="M148.5,552.4l-3-0.1c-0.3,0-0.5-0.1-0.7-0.3c-0.2-0.2-0.3-0.4-0.3-0.7c-0.8-12.2-1.9-25.4-0.2-30.4
			c0-0.1,0-0.3,0.1-0.4c0.1-0.1,0.1-0.2,0.3-0.3c0.1-0.1,0.2-0.2,0.4-0.2c0.1,0,0.3-0.1,0.4,0l12,1.7c0.2,0,0.5,0.2,0.6,0.3
			c0.2,0.2,0.2,0.4,0.2,0.7c1.5,6,1.6,16.9,1.5,28.2c0,0.1,0,0.3-0.1,0.4s-0.1,0.2-0.2,0.3c-0.1,0.1-0.2,0.2-0.3,0.2
			c-0.1,0.1-0.3,0.1-0.4,0.1h-3.2c-0.2,0-0.5-0.1-0.7-0.2c-0.2-0.2-0.3-0.4-0.3-0.6l-2-12.7c0-0.2-0.1-0.4-0.3-0.5
			c-0.1-0.1-0.3-0.2-0.5-0.2c-0.2,0-0.4,0.1-0.5,0.2c-0.1,0.1-0.2,0.3-0.3,0.5l-1.6,13.3c0,0.2-0.1,0.5-0.3,0.6
			C149.1,552.4,148.8,552.4,148.5,552.4C148.6,552.4,148.5,552.4,148.5,552.4z"/>
		<path class="st3" d="M150.6,522.6c-1.8-1-3.7-1.7-5.7-2c-0.1,0-0.3-0.1-0.4-0.1c-0.1-0.1-0.2-0.2-0.3-0.3
			c-0.1-0.1-0.1-0.2-0.2-0.4c0-0.1,0-0.3,0-0.4l2.9-21.4c0.2-1.3,0.6-2.4,1.4-3.5c0.8-1,1.8-1.8,2.9-2.3c1.1-0.5,2.3-0.7,3.6-0.6
			c1.2,0.1,2.4,0.5,3.4,1.2c0.1,0.1,0.2,0.1,0.3,0.2c1.2,0.9,2.1,2.1,2.6,3.4c0.5,1.4,0.6,2.9,0.2,4.3c-1.8,7.2-2.4,19.1-2.5,21.4
			c0,0.2-0.1,0.4-0.2,0.5c-0.1,0.2-0.3,0.3-0.5,0.3c-1.1,0.4-2.2,0.6-3.4,0.6C153.4,523.7,151.9,523.3,150.6,522.6L150.6,522.6z"/>
		<path class="st10" d="M153.1,489.4c3,0,5.5-2.5,5.5-5.5s-2.4-5.5-5.5-5.5c-3,0-5.5,2.5-5.5,5.5S150,489.4,153.1,489.4z"/>
		<path class="st8" d="M156.9,488.3c-0.2,0.2-0.5,0.4-0.8,0.5c-0.3,0.1-0.7,0.1-1,0c-0.3-0.1-0.6-0.3-0.8-0.6
			c-0.2-0.3-0.4-0.6-0.4-0.9c0-0.1,0-0.2,0-0.3c0.2-0.6,0.3-1.3,0.4-1.9c0-0.2-0.1-0.3-0.2-0.5c-0.8-1.1-2.7,0.5-3.5-0.5
			c-0.5-0.6,0.1-1.6-0.3-2.2c-0.5-0.9-1.9-0.5-2.8-0.9c-1-0.5-0.9-2.1-0.3-3c0.4-0.5,1-1,1.6-1.3c0.6-0.3,1.3-0.5,2-0.5
			c1.4,0,2.7,0.2,4,0.8c1.5,0.5,2.8,1.4,3.8,2.6c0.5,0.8,0.8,1.7,0.9,2.7c0.1,0.9,0,1.9-0.3,2.8
			C158.7,486.2,157.9,487.3,156.9,488.3z"/>
		<path class="st9" d="M161.3,493.6c-0.1-0.5-0.9-1.1-2.1-1.6c-1.9-0.8-3.9-1.1-6-0.9c-2,0.2-4,0.8-5.7,1.9c-0.1,0-0.2,0.1-0.3,0.1
			c-0.1,0.1-0.2,0.2-0.2,0.3l-4,17.5l-0.5,2.3l-0.3,1.5l-0.5,2.3l-0.3,1.2c0,0.1,0,0.2,0,0.2c0,0.1,0,0.2,0.1,0.2
			c0,0.1,0.1,0.1,0.2,0.2c0.1,0,0.1,0.1,0.2,0.1l17.1,1.5c0,0,0,0,0,0c0.1,0,0.3-0.1,0.4-0.2c0.1-0.1,0.2-0.2,0.2-0.4l0.2-2.5
			l0.2-2.6l0.1-1.1l0.2-2.6L161.3,493.6L161.3,493.6L161.3,493.6z"/>
		<path class="st10" d="M133.2,494.7c0,0.1,0,0.2,0.1,0.4l9.6,5.5l2.3-1.3l2.5,3.2l-5,3.5l-10.9-8.6c-0.4,0.2-0.9,0.2-1.4,0.1
			c-0.5-0.1-0.9-0.4-1.2-0.7c-0.3-0.4-0.5-0.8-0.6-1.3s0-0.9,0.3-1.4c0.2-0.4,0.6-0.8,1-1c0.4-0.2,0.9-0.3,1.4-0.2
			c0.5,0.1,0.9,0.3,1.3,0.6C132.9,493.8,133.1,494.2,133.2,494.7L133.2,494.7z"/>
		<path class="st3" d="M143.2,500.1c0-0.1,0-0.3,0.1-0.4c0.1-0.1,0.1-0.3,0.2-0.4l4.9-4.9c0.5-0.5,1.1-0.8,1.8-0.8
			c0.7,0,1.4,0.2,1.9,0.6c0.5,0.4,0.9,1,1,1.7c0.1,0.7,0,1.4-0.4,1.9l-3.5,5.3c-0.1,0.2-0.4,0.4-0.6,0.4c-0.3,0.1-0.5,0-0.8-0.1
			l-4.1-2.7c-0.1-0.1-0.2-0.2-0.3-0.3C143.3,500.4,143.2,500.3,143.2,500.1z"/>
		<path class="st2" d="M160.1,511l-0.2,2.6l-17.5-0.4l0.5-2.3H160.1z"/>
		<path class="st2" d="M159.9,514.8l-0.2,2.6l-18.1-0.4l0.5-2.3H159.9z"/>
		<path class="st9" d="M153.2,473.3c-1.9,0-3.6,0.7-5,2c-1.3,1.3-2.1,3-2.2,4.9h-1.3c-0.1,0-0.2,0-0.3,0.1c-0.1,0.1-0.1,0.2-0.1,0.3
			v1.8c0,0.1,0,0.2,0.1,0.3c0.1,0.1,0.2,0.1,0.3,0.1h15.2c0.1,0,0.2,0,0.3-0.1c0.1-0.1,0.1-0.2,0.1-0.3v-2c0-0.9-0.2-1.9-0.5-2.7
			c-0.4-0.9-0.9-1.7-1.5-2.3c-0.7-0.7-1.4-1.2-2.3-1.5C155,473.5,154.1,473.3,153.2,473.3z"/>
		<path class="st11" d="M193.3,545.9h-1.5c0-0.2-2.1-5-2.1-5l-1.2-3l-0.8-2l-1.2-3l-1.4-3.5c0-0.2-0.1-0.3-0.2-0.4s-0.3-0.2-0.4-0.2
			s-0.3,0.1-0.4,0.2s-0.2,0.2-0.2,0.4l-1.4,3.5l-1.2,3l-0.8,2l-1.2,3c0,0-2.1,4.8-2.1,5h-1.5c-0.4,0-0.8,0.2-1.1,0.4
			c-0.3,0.3-0.4,0.7-0.4,1.1c0,0.4,0.2,0.8,0.4,1.1c0.3,0.3,0.7,0.4,1.1,0.4h18c0.4,0,0.8-0.2,1.1-0.4c0.3-0.3,0.4-0.7,0.4-1.1
			c0-0.4-0.2-0.8-0.4-1.1C194.1,546,193.7,545.9,193.3,545.9z"/>
		<path class="st11" d="M192.3,571.9h-0.6c0.1-0.1-2.6-6.9-2.6-6.9l-1.6-3.8l-1.1-2.6l-1.6-3.8l-1.7-4.2c0-0.2-0.2-0.4-0.3-0.5
			c-0.2-0.1-0.4-0.2-0.6-0.2c-0.2,0-0.4,0.1-0.6,0.2c-0.2,0.1-0.3,0.3-0.3,0.5l-1.7,4.2l-1.6,3.8l-1.1,2.6l-1.6,3.8
			c0,0-2.6,6.7-2.6,6.9h-0.6c-0.4,0-0.8,0.2-1.1,0.4c-0.3,0.3-0.4,0.7-0.4,1.1c0,0.4,0.2,0.8,0.4,1.1c0.3,0.3,0.7,0.4,1.1,0.4h20
			c0.4,0,0.8-0.2,1.1-0.4c0.3-0.3,0.4-0.7,0.4-1.1c0-0.4-0.2-0.8-0.4-1.1C193.1,572,192.7,571.9,192.3,571.9z"/>
		<path class="st1" d="M187.6,535.9h-6.7l1.2-3h4.2L187.6,535.9z"/>
		<path class="st1" d="M189.7,540.9h-10.8l1.2-3h8.3L189.7,540.9z"/>
		<path class="st1" d="M186.5,558.6h-8.4l1.6-3.8h5.2L186.5,558.6z"/>
		<path class="st1" d="M189.1,565h-13.6l1.6-3.8h10.5L189.1,565z"/>
		<path class="st6" d="M413,488.6c0.2-0.2,0.3-0.3,0.3-0.5c0.1-0.2,0.1-0.4,0.1-0.6c0-0.2-0.1-0.4-0.2-0.6c-0.1-0.2-0.3-0.4-0.4-0.5
			l-0.8-4.9l-3.1,1l1.7,4.4c-0.2,0.3-0.3,0.7-0.2,1c0.1,0.4,0.3,0.7,0.5,0.9c0.3,0.2,0.6,0.3,1,0.3C412.4,489,412.7,488.9,413,488.6
			L413,488.6z"/>
		<path class="st9" d="M409.8,486.3l-1.9-8.9c-0.2-0.9-0.1-1.7,0.1-2.6c0.3-0.8,0.7-1.6,1.3-2.2c2.4-2.3,5.6-5.3,6.6-6.1
			c1-0.7,2.2-1.1,3.5-1l0,0l1.6,1.5l-3.6,5.9l-5.4,3.4l0.6,8.7L409.8,486.3z"/>
		<path class="st2" d="M416.5,474.2h-8c-0.3,0-0.6,0.3-0.6,0.6c0,0.3,0.3,0.6,0.6,0.6h8c0.3,0,0.6-0.3,0.6-0.6
			C417.1,474.5,416.8,474.2,416.5,474.2z"/>
		<path class="st2" d="M416.5,487.8h-8c-0.3,0-0.6,0.3-0.6,0.6c0,0.3,0.3,0.6,0.6,0.6h8c0.3,0,0.6-0.3,0.6-0.6
			C417.1,488.1,416.8,487.8,416.5,487.8z"/>
		<path class="st2" d="M412.6,521.9c-0.1,0-0.2,0-0.2-0.1c-0.1-0.1-0.1-0.1-0.1-0.2l-4-46.8c0,0,0-0.1,0-0.1c0,0,0-0.1,0.1-0.1
			c0,0,0.1-0.1,0.1-0.1c0,0,0.1,0,0.1,0c0,0,0.1,0,0.1,0c0,0,0.1,0,0.1,0.1c0,0,0.1,0.1,0.1,0.1c0,0,0,0.1,0,0.1l3.7,43.2l3.6-43.2
			c0,0,0-0.1,0-0.1c0,0,0-0.1,0.1-0.1c0,0,0.1,0,0.1-0.1c0,0,0.1,0,0.1,0c0,0,0.1,0,0.1,0c0,0,0.1,0,0.1,0.1c0,0,0,0.1,0.1,0.1
			c0,0,0,0.1,0,0.1l-3.9,46.8c0,0.1,0,0.2-0.1,0.2C412.7,521.9,412.6,521.9,412.6,521.9L412.6,521.9z"/>
		<path class="st6" d="M421.5,463.7c2.3,0,4.1-1.8,4.1-4.1s-1.8-4.1-4.1-4.1s-4.1,1.8-4.1,4.1S419.2,463.7,421.5,463.7z"/>
		<path class="st6" d="M409.3,520.1l-2-0.6l1.5-7.8l2.9,0.9L409.3,520.1z"/>
		<path class="st8" d="M409.2,521.8l-6.3-2l0.1-0.2c0.2-0.6,0.6-1.1,1.2-1.4c0.6-0.3,1.3-0.4,1.9-0.2l3.9,1.3L409.2,521.8z"/>
		<path class="st6" d="M423.5,520h-2l-1-7.9h3V520z"/>
		<path class="st8" d="M417.6,521.8h6.3v-2.3h-4c-0.6,0-1.2,0.2-1.6,0.7C417.8,520.6,417.6,521.2,417.6,521.8L417.6,521.8z"/>
		<path class="st8" d="M423.4,517.4l-0.7-0.1c-0.9-0.1-1.7-0.2-2.6-0.5c-0.2-0.1-0.2-1.2-0.1-7.5c0.1-4.7,0.2-10.5,0-13.6
			c0-0.1-0.1-0.2-0.1-0.3c-0.1-0.1-0.2-0.2-0.3-0.2c-0.1,0-0.2,0-0.4,0.1c-0.1,0.1-0.2,0.2-0.2,0.3c-1.6,3.6-4.2,11.7-5.9,17
			c-0.6,1.9-1.1,3.3-1.4,4.2c-0.1,0.2-0.2,0.3-0.3,0.4c-0.2,0.1-0.3,0.1-0.5,0.1c-1.4-0.4-1.3-0.5-3.4-1c-0.2,0-0.3-0.2-0.4-0.3
			c-0.1-0.2-0.1-0.3-0.1-0.5c0.4-1.7,7.1-29.8,7.6-32.5c0-0.1,0.1-0.2,0.1-0.3c0.1-0.1,0.1-0.1,0.2-0.2c0.1-0.1,0.2-0.1,0.3-0.1
			c0.1,0,0.2,0,0.3,0c1.5,0.3,2.4,0.6,3.9,0.9c1.6,0.3,3.3,0.7,4.9,1c0.2,0,0.3,0.1,0.4,0.3c0.5,0.5,1,0.9,1.6,1.1
			c0.4,0.2-0.5,0.2-0.2,0.5c1.5,1.2-0.7,25.4-2,30.8c0,0.2-0.1,0.3-0.3,0.4C423.8,517.4,423.6,517.5,423.4,517.4L423.4,517.4z"/>
		<path class="st8" d="M423.3,463.2c-0.2-1,1-3.2,0.7-4.2c-0.2-0.7-1.8-0.2-2.2-0.8c-0.2-0.3-0.4-0.6-0.7-0.8
			c-0.3-0.2-0.6-0.3-1-0.3c-0.8,0-1.6,0.6-2.4,0.3c-0.2-0.1-0.3-0.2-0.5-0.4c-0.1-0.2-0.2-0.3-0.3-0.5c-0.1-0.2-0.1-0.4-0.1-0.6
			c0-0.2,0.1-0.4,0.2-0.6c0.4-0.7,1.1-1.3,1.8-1.6c1.2-0.7,2.7-1,4-0.7c0.8,0.3,1.5,0.8,2.1,1.3c0.6,0.5,1.2,1,1.6,1.6
			c0.4,0.7,0.6,1.4,0.6,2.2c0,0.8-0.2,1.5-0.5,2.2C426,461.7,424.8,462.7,423.3,463.2"/>
		<path class="st9" d="M413.2,486.8c0.4-0.7,1.1-4.2,1.9-10c0.6-4,1.1-8,1.3-10.1c0-0.2,0.1-0.3,0.2-0.5c0.1-0.1,0.2-0.2,0.4-0.3
			c0.2-0.1,0.3-0.1,0.5-0.2c1.9-0.9,4-1.2,6-0.9c2,0.3,4,1.2,5.5,2.5l0,0l0,0c0,0,0.9,4.6-0.9,7.7c-1.7,3-1.7,11.1-1.7,11.2v0.1
			l-0.1,0c-2.7-0.8-13,0.6-13.1,0.6l-0.2,0L413.2,486.8z"/>
		<path class="st2" d="M428.7,476.3h-8c-0.3,0-0.6,0.3-0.6,0.6c0,0.3,0.3,0.6,0.6,0.6h8c0.3,0,0.6-0.3,0.6-0.6
			C429.3,476.5,429,476.3,428.7,476.3z"/>
		<path class="st2" d="M428.7,489.9h-8c-0.3,0-0.6,0.3-0.6,0.6c0,0.3,0.3,0.6,0.6,0.6h8c0.3,0,0.6-0.3,0.6-0.6
			C429.3,490.1,429,489.9,428.7,489.9z"/>
		<path class="st2" d="M424.8,522.1c-0.1,0-0.2,0-0.2-0.1c-0.1-0.1-0.1-0.1-0.1-0.2l-4-44.9c0-0.1,0-0.2,0.1-0.2
			c0.1-0.1,0.1-0.1,0.2-0.1c0.1,0,0.2,0,0.2,0.1c0.1,0.1,0.1,0.1,0.1,0.2l3.7,41.3l3.6-41.3c0,0,0-0.1,0-0.1c0,0,0-0.1,0.1-0.1
			c0,0,0.1,0,0.1-0.1c0,0,0.1,0,0.1,0c0,0,0.1,0,0.1,0c0,0,0.1,0,0.1,0.1c0,0,0,0.1,0.1,0.1c0,0,0,0.1,0,0.1l-3.9,44.9
			c0,0.1,0,0.2-0.1,0.2C424.9,522.1,424.8,522.1,424.8,522.1L424.8,522.1z"/>
		<path class="st6" d="M422.2,490.1c0-0.2,0-0.4,0-0.6c0-0.2,0.1-0.4,0.3-0.6c0.1-0.2,0.3-0.3,0.5-0.4c0.2-0.1,0.4-0.2,0.6-0.2
			l3.3-3.7l2.1,2.5l-3.8,2.8c0,0.4-0.2,0.7-0.4,1c-0.2,0.3-0.6,0.4-1,0.5c-0.4,0-0.7-0.1-1-0.3C422.5,490.7,422.3,490.4,422.2,490.1
			L422.2,490.1z"/>
		<path class="st9" d="M424.1,487.5l5.2-7l-2.7-5.8l0.2-6.9l2.2-0.4l0,0c1.1,0.6,1.9,1.6,2.4,2.8c0.5,1.2,1.5,5.4,2.3,8.7
			c0.2,0.8,0.2,1.7-0.1,2.6c-0.2,0.8-0.7,1.6-1.3,2.2l-6.4,6.4L424.1,487.5z"/>
		<path class="st2" d="M402.2,520.1l7.2,1.7c0.1,0,0.3,0,0.4,0c0.1-0.1,0.2-0.2,0.3-0.3l6.2-16.4c0-0.1,0-0.1,0-0.2
			c0-0.1,0-0.1,0-0.2c0-0.1-0.1-0.1-0.1-0.2c-0.1-0.1-0.1-0.1-0.2-0.1l-5.4-2.1c-0.1,0-0.2,0-0.3,0s-0.2,0-0.3,0.1
			c-0.1,0-0.1,0.1-0.2,0.1c0,0.1-0.1,0.1-0.1,0.2v0l-3.8,14.4l-0.1,0c-1.2,0.1-2.3,0.5-3.2,1.3c-0.2,0.2-0.3,0.5-0.4,0.8
			C402.2,519.6,402.1,519.9,402.2,520.1z"/>
		<path class="st12" d="M407.4,511l0,0.3l6.5,0.7l0-0.3L407.4,511z"/>
		<path class="st12" d="M406.8,513.6l-0.1,0.3l5.3,2.4l0.1-0.3L406.8,513.6z"/>
		<path class="st12" d="M414.6,509.5l-6.2-2.1l0.1-0.3l6.2,2L414.6,509.5z"/>
		<path class="st12" d="M415.2,508.1l-6.2-3l0.1-0.3l6.2,3L415.2,508.1z"/>
		<path class="st12" d="M406.2,516l-0.2,0.2l4.5,3.8l0.2-0.2L406.2,516z"/>
		<path class="st12" d="M405,517.3l-0.3,0.1l1.8,4l0.3-0.1L405,517.3z"/>
		<path class="st10" d="M579.5,489.9c-0.3-0.1-0.5-0.2-0.7-0.3c-0.2-0.2-0.4-0.4-0.5-0.6c-0.1-0.2-0.2-0.5-0.2-0.8
			c0-0.3,0-0.5,0.2-0.8l-6.9-15.5l3.9-1l5.5,15.6c0.4,0.2,0.7,0.6,0.9,1c0.2,0.4,0.2,0.9,0,1.3c-0.2,0.4-0.5,0.8-0.9,1
			C580.4,490,579.9,490,579.5,489.9L579.5,489.9z"/>
		<path class="st7" d="M572.6,476.7c-0.1,0-0.2-0.1-0.3-0.2c-0.1-0.1-0.1-0.2-0.2-0.3l-1.2-4c-0.3-0.6-0.3-1.2-0.1-1.8
			c0.2-0.6,0.6-1.1,1.2-1.3c0.6-0.3,1.2-0.3,1.8-0.1c0.6,0.2,1.1,0.6,1.3,1.2l2.3,3.5c0.1,0.1,0.1,0.2,0.1,0.3c0,0.1,0,0.2,0,0.4
			c0,0.1-0.1,0.2-0.2,0.3c-0.1,0.1-0.2,0.2-0.3,0.2l-3.8,1.8c-0.1,0.1-0.2,0.1-0.3,0.1C572.8,476.8,572.7,476.8,572.6,476.7
			L572.6,476.7z"/>
		<path class="st3" d="M586.6,474.7l-4.2,3c-0.1,0-0.1,0.1-0.2,0.1c-0.1,0-0.1,0-0.2-0.1l-1.1-0.9c0,0-0.1-0.1-0.1-0.1
			c0,0,0-0.1,0-0.1c0,0,0-0.1,0-0.1c0,0,0-0.1,0.1-0.1l3.2-2.9c0,0,0.1-0.1,0.1-0.1c0.1,0,0.1,0,0.2,0l2.1,0.8
			c0.1,0,0.1,0.1,0.1,0.1c0,0,0.1,0.1,0.1,0.2c0,0.1,0,0.1,0,0.2C586.7,474.6,586.6,474.7,586.6,474.7L586.6,474.7z"/>
		<path class="st5" d="M586.2,474.4C586.2,474.4,586.2,474.4,586.2,474.4c0-0.1,0-0.1-0.1-0.1l-1.9-0.7c0,0,0,0-0.1,0c0,0,0,0-0.1,0
			l-2.9,2.6l0,0c0,0,0,0,0,0c0,0,0,0,0,0c0,0,0,0,0,0c0,0,0,0,0,0l1,0.8c0,0,0,0,0.1,0c0,0,0,0,0.1,0L586.2,474.4
			C586.2,474.5,586.2,474.5,586.2,474.4z"/>
		<path class="st10" d="M571.2,519.2h2.1l1-8.2h-3.1V519.2z"/>
		<path class="st8" d="M570.7,518.5h4.2l0,0c0.4,0,0.7,0.1,1,0.2c0.3,0.1,0.6,0.3,0.9,0.6c0.2,0.2,0.4,0.5,0.6,0.9
			c0.1,0.3,0.2,0.7,0.2,1v0.1h-6.9V518.5z"/>
		<path class="st10" d="M564.1,519.2h2.1l1-8.2h-3.1V519.2z"/>
		<path class="st8" d="M563.6,518.5h4.2l0,0c0.4,0,0.7,0.1,1,0.2c0.3,0.1,0.6,0.3,0.9,0.6c0.2,0.2,0.4,0.5,0.6,0.9
			c0.1,0.3,0.2,0.7,0.2,1v0.1h-6.9V518.5z"/>
		<path class="st8" d="M563.7,516.7c-0.1-0.2-0.2-0.4-0.2-0.6c-0.5-5.2,0.9-32.6,4.1-35l0,0l9.3-1.6l0.2,0.2c0,0.2,1.7,24.3-3,36.5
			c-0.1,0.1-0.2,0.3-0.3,0.4c-0.1,0.1-0.3,0.1-0.4,0.1h-1.9c-0.1,0-0.2,0-0.3-0.1c-0.1,0-0.2-0.1-0.3-0.2s-0.1-0.2-0.2-0.3
			c0-0.1,0-0.2,0-0.3l1.5-23c0-0.1,0-0.1-0.1-0.2c0-0.1-0.1-0.1-0.2-0.1c-0.1,0-0.1,0-0.2,0c-0.1,0-0.1,0.1-0.1,0.2l-4.2,23.3
			c0,0.2-0.1,0.3-0.3,0.4c-0.1,0.1-0.3,0.2-0.5,0.2l-2.4,0.2c0,0,0,0-0.1,0C564,516.9,563.8,516.8,563.7,516.7L563.7,516.7z"/>
		<path class="st10" d="M575.9,465.4c2.4,0,4.3-1.9,4.3-4.3c0-2.4-1.9-4.3-4.3-4.3c-2.4,0-4.3,1.9-4.3,4.3
			C571.7,463.5,573.6,465.4,575.9,465.4z"/>
		<path class="st9" d="M565.7,484.8c-0.2-0.2-0.3-0.4-0.3-0.7l1.7-8.1c-1.4-5.9,0.5-7,2.5-8.1l0,0l0.9-2.4c0-0.1,0.1-0.2,0.1-0.3
			c0.1-0.1,0.2-0.1,0.3-0.2c0.1,0,0.2-0.1,0.3-0.1c0.1,0,0.2,0,0.3,0.1l4.4,2.4c0.2,0.1,0.3,0.3,0.4,0.5c0.1,0.2,0.1,0.5,0,0.7
			l-0.3,0.9c0.8,1.1,2.2,5.6,0.8,7.3l1,5.8c0,0.2,0,0.4-0.1,0.6c-0.1,0.2-0.3,0.3-0.5,0.4l-10.9,1.4c0,0-0.1,0-0.1,0
			C566,485,565.8,485,565.7,484.8L565.7,484.8z"/>
		<path class="st10" d="M581.6,475.5c-0.1,0.1-0.1,0.1-0.2,0.2l-8.6-0.6l-0.9-1.9l-3,1l1.3,3.5c0.1,0.3,0.3,0.5,0.6,0.7
			c0.3,0.2,0.6,0.2,0.9,0.2l9.8-0.7c0.2,0.3,0.5,0.5,0.9,0.7c0.3,0.1,0.7,0.1,1.1,0c0.4-0.1,0.7-0.3,0.9-0.6c0.2-0.3,0.4-0.6,0.4-1
			c0-0.4,0-0.7-0.2-1.1c-0.2-0.3-0.5-0.6-0.8-0.7c-0.3-0.2-0.7-0.2-1.1-0.2C582.2,475.1,581.9,475.2,581.6,475.5L581.6,475.5z"/>
		<path class="st9" d="M572.5,475.1l-3.7,1.2c-0.1,0-0.2,0-0.3,0c-0.1,0-0.2,0-0.3-0.1c-0.1-0.1-0.2-0.1-0.2-0.2
			c-0.1-0.1-0.1-0.2-0.1-0.3l-0.7-3.9c-0.2-0.5-0.1-1.1,0.1-1.7c0.3-0.5,0.7-0.9,1.3-1.1c0.5-0.2,1.1-0.1,1.7,0.1
			c0.5,0.3,0.9,0.7,1.1,1.3l1.8,3.5c0,0.1,0.1,0.2,0.1,0.3c0,0.1,0,0.2-0.1,0.3c0,0.1-0.1,0.2-0.2,0.3
			C572.7,475.1,572.6,475.1,572.5,475.1L572.5,475.1z"/>
		<path class="st8" d="M573.5,457.8c1.9,0,3.5-1.6,3.5-3.5c0-1.9-1.6-3.5-3.5-3.5c-1.9,0-3.5,1.6-3.5,3.5
			C570.1,456.2,571.6,457.8,573.5,457.8z"/>
		<path class="st8" d="M580,461.7c0.3,0.1,0.7,0,1-0.1c0.2-0.1,0.3-0.2,0.4-0.4c0.1-0.2,0.2-0.3,0.2-0.5c0.6-4.3-3-3.9-3.4-4.1
			c-0.3-0.2-0.5-0.3-0.8-0.6c-0.6-0.3-1.3-0.5-2-0.4c-0.8-0.1-1.6,0-2.4,0.3c-0.7,0.3-1.2,0.8-1.6,1.5c-0.4,0.6-0.6,1.3-0.8,2.1
			c-0.3,0.8-0.3,1.7-0.1,2.5c0.2,0.6,0.5,1.2,1.1,1.6c0.5,0.4,1.1,0.6,1.8,0.7c-0.1-0.5,0-1,0.2-1.5c0.2-0.5,0.6-0.8,1.1-1.1
			c0.7-0.4,1.6-0.5,2.4-0.3c0.5,0.1,1,0.2,1.6,0.2C578.9,461.6,579.5,461.6,580,461.7z"/>
		<path class="st1" d="M913.3,520c0-4.5,1.8-8.9,5-12.1c3.2-3.2,7.6-5,12.1-5c4.5,0,8.9,1.8,12.1,5c3.2,3.2,5,7.6,5,12.1"/>
		<path class="st2" d="M930.5,520c-0.1,0-0.2,0-0.3-0.1c-0.1-0.1-0.1-0.2-0.1-0.3v-9c0-0.1,0-0.2,0.1-0.3c0.1-0.1,0.2-0.1,0.3-0.1
			s0.2,0,0.3,0.1c0.1,0.1,0.1,0.2,0.1,0.3v9c0,0.1,0,0.2-0.1,0.3C930.7,520,930.6,520,930.5,520L930.5,520z"/>
		<path class="st2" d="M930.5,516.9c-0.1,0-0.2,0-0.3-0.1l-5.6-4.8c0,0-0.1-0.1-0.1-0.1s0-0.1,0-0.2c0-0.1,0-0.1,0-0.2
			s0-0.1,0.1-0.2c0,0,0.1-0.1,0.1-0.1c0.1,0,0.1,0,0.2,0c0.1,0,0.1,0,0.2,0c0.1,0,0.1,0,0.2,0.1l5.6,4.8c0.1,0.1,0.1,0.1,0.1,0.2
			c0,0.1,0,0.2,0,0.3c0,0.1-0.1,0.2-0.2,0.2C930.7,516.9,930.6,516.9,930.5,516.9L930.5,516.9z"/>
		<path class="st1" d="M966.2,520c0-4.5,1.8-8.9,5-12.1c3.2-3.2,7.6-5,12.1-5c4.6,0,8.9,1.8,12.1,5c3.2,3.2,5,7.6,5,12.1"/>
		<path class="st2" d="M983.4,520c-0.1,0-0.2,0-0.3-0.1c-0.1-0.1-0.1-0.2-0.1-0.3v-9c0-0.1,0-0.2,0.1-0.3c0.1-0.1,0.2-0.1,0.3-0.1
			s0.2,0,0.3,0.1c0.1,0.1,0.1,0.2,0.1,0.3v9c0,0.1,0,0.2-0.1,0.3C983.6,520,983.5,520,983.4,520L983.4,520z"/>
		<path class="st2" d="M983.4,516.9c-0.1,0-0.2,0-0.3-0.1l-5.6-4.8c0,0-0.1-0.1-0.1-0.1c0-0.1,0-0.1,0-0.2c0-0.1,0-0.1,0-0.2
			c0-0.1,0-0.1,0.1-0.2c0,0,0.1-0.1,0.1-0.1c0.1,0,0.1,0,0.2,0c0.1,0,0.1,0,0.2,0c0.1,0,0.1,0,0.2,0.1l5.6,4.8
			c0.1,0.1,0.1,0.1,0.1,0.2c0,0.1,0,0.2,0,0.3c0,0.1-0.1,0.2-0.2,0.2C983.6,516.9,983.5,516.9,983.4,516.9L983.4,516.9z"/>
	</g>
</g>
<g>
	<defs>
		<rect id="SVGID_00000140715356868589400700000016312136575256033944_" x="706" y="264.6" width="870" height="520.1"/>
	</defs>
	<clipPath id="SVGID_00000120551521133277286390000010467230316454374842_">
		<use xlink:href="#SVGID_00000140715356868589400700000016312136575256033944_"  style="overflow:visible;"/>
	</clipPath>
	<g style="clip-path:url(#SVGID_00000120551521133277286390000010467230316454374842_);">
		<path class="st1" d="M1372.1,778.8c-11.1-9.4-17.9-24.3-16.1-38.8c1.8-14.5,12.8-27.8,27-30.9c14.3-3.1,30.5,5.4,34.8,19.4
			c2.4-26.8,5.1-54.8,19.4-77.7c12.9-20.7,35.3-35.5,59.6-38.2c24.3-2.6,49.8,7.4,64.9,26.5s18.8,47,8.2,69
			c-7.8,16.2-22.2,28.2-37.3,38c-48.7,31.4-107.1,44.2-164.4,36L1372.1,778.8z"/>
		<path class="st5" d="M1537.7,620.6c-20,16.3-38.4,34.5-54.8,54.4c-25.7,31-46.6,65.8-61.8,103.2c-1.1,2.7,3.3,3.9,4.4,1.2
			c24.9-60.7,64.5-114.2,115.4-155.6C1543.2,622,1540,618.8,1537.7,620.6z"/>
		<path class="st1" d="M986.1,776.3c15.3-12.9,24.6-33.3,22.2-53.2c-2.4-19.9-17.5-38.2-37.1-42.4c-19.6-4.2-41.9,7.5-47.8,26.6
			c-3.3-36.9-7-75.3-26.6-106.7c-17.8-28.4-48.5-48.8-81.8-52.4c-33.3-3.6-68.4,10.1-89.2,36.4c-20.8,26.3-25.9,64.5-11.3,94.7
			c10.7,22.2,30.5,38.8,51.2,52.3c66,43,147.9,60.9,225.9,49.4"/>
		<path class="st5" d="M758.6,559c27.5,22.4,52.7,47.4,75.3,74.8c22.6,27.3,42.5,56.7,59.4,87.9c9.4,17.5,17.9,35.5,25.4,53.9
			c1.5,3.7-4.5,5.4-6.1,1.7c-13.3-32.4-29.7-63.5-49-92.7c-19.2-29.1-41.2-56.3-65.7-81.2c-13.8-14.1-28.5-27.4-43.8-39.8
			C751,560.9,755.5,556.5,758.6,559L758.6,559z"/>
		<path class="st1" d="M1330.5,783.6h-365V409.1c0-79.7,64.8-144.5,144.5-144.5h76c79.7,0,144.5,64.8,144.5,144.5V783.6z"/>
		<path class="st2" d="M1254.5,783.6h-289V409.1c-0.1-30.5,9.6-60.3,27.6-84.9c0.7-0.9,1.3-1.8,2-2.7c8.7-11.4,19.1-21.5,30.8-29.9
			c0.7-0.5,1.3-1,2-1.4c9.8-6.8,20.3-12.3,31.5-16.5c0.7-0.3,1.3-0.5,2-0.7c10.1-3.6,20.5-6.1,31.1-7.3c0.7-0.1,1.3-0.2,2-0.2
			c10.3-1.1,20.8-1.1,31.1,0c0.7,0.1,1.3,0.1,2,0.2c10.6,1.3,21,3.7,31.1,7.3c0.7,0.2,1.3,0.5,2,0.7c11,4.1,21.4,9.6,31.1,16.2
			c0.7,0.5,1.3,0.9,2,1.4c6.5,4.7,12.7,9.9,18.4,15.6c4.6,4.6,8.8,9.4,12.7,14.6c0.7,0.9,1.3,1.8,2,2.7c18,24.7,27.7,54.4,27.6,84.9
			V783.6z"/>
		<path class="st9" d="M1231,616.1c8.8,0,16-7.2,16-16s-7.2-16-16-16s-16,7.2-16,16S1222.2,616.1,1231,616.1z"/>
		<path class="st3" d="M1546,784.2H807.7c-0.3,0-0.6-0.1-0.8-0.3c-0.2-0.2-0.3-0.5-0.3-0.8c0-0.3,0.1-0.6,0.3-0.8
			c0.2-0.2,0.5-0.3,0.8-0.3H1546c0.3,0,0.6,0.1,0.8,0.3c0.2,0.2,0.4,0.5,0.4,0.8c0,0.3-0.1,0.6-0.4,0.8
			C1546.6,784.1,1546.3,784.2,1546,784.2L1546,784.2z"/>
		<path class="st5" d="M1175,675.1h-130c-1.7,0-3.4-0.7-4.6-1.9c-1.2-1.2-1.9-2.8-1.9-4.6V378.5c0-1.7,0.7-3.3,1.9-4.6
			c1.2-1.2,2.9-1.9,4.6-1.9h130c1.7,0,3.4,0.7,4.6,1.9c1.2,1.2,1.9,2.8,1.9,4.6v290.2c0,1.7-0.7,3.3-1.9,4.6
			C1178.4,674.4,1176.7,675.1,1175,675.1L1175,675.1z"/>
		<path class="st2" d="M1181.5,465.9h-143v2h143V465.9z"/>
		<path class="st2" d="M1182,580.1h-143v2h143V580.1z"/>
		<path class="st2" d="M1085.5,372.1h-2v304h2V372.1z"/>
		<path class="st2" d="M1135.5,372.1h-2v304h2V372.1z"/>
	</g>
</g>
<g>
	<defs>
		<rect id="SVGID_00000071544445180021990850000005313960717755160710_" x="1048" y="467.6" width="743.7" height="416.5"/>
	</defs>
	<clipPath id="SVGID_00000072259321375421472670000014258002403635067797_">
		<use xlink:href="#SVGID_00000071544445180021990850000005313960717755160710_"  style="overflow:visible;"/>
	</clipPath>
	<g style="clip-path:url(#SVGID_00000072259321375421472670000014258002403635067797_);">
		<path class="st4" d="M1563.8,599.7h-14.1c-0.5,0-0.9-0.2-1.2-0.5c-0.3-0.3-0.5-0.7-0.6-1.2l-2.8-29h23.4l-2.8,29
			c0,0.5-0.2,0.9-0.6,1.2C1564.7,599.5,1564.2,599.7,1563.8,599.7L1563.8,599.7z"/>
		<path class="st2" d="M1568.4,572.7H1545c-0.5,0-1-0.2-1.3-0.5s-0.5-0.8-0.5-1.3v-4.4c0-0.5,0.2-0.9,0.5-1.3
			c0.3-0.3,0.8-0.5,1.3-0.5h23.3c0.5,0,0.9,0.2,1.3,0.5c0.3,0.3,0.5,0.8,0.5,1.3v4.4c0,0.5-0.2,0.9-0.5,1.3
			C1569.3,572.5,1568.9,572.7,1568.4,572.7L1568.4,572.7z"/>
		<path class="st7" d="M1398.4,568.6h-56v-17c17.7-12.3,33.4-11.2,54,1L1398.4,568.6z"/>
		<path class="st6" d="M1329.4,870.5h-12.3l-1.8-47.3h14.1V870.5z"/>
		<path class="st8" d="M1332.6,882.4H1293v-0.5c0-2,0.4-4,1.2-5.9c0.8-1.9,1.9-3.6,3.3-5c1.4-1.4,3.1-2.6,5-3.3
			c1.9-0.8,3.9-1.2,5.9-1.2h0h24.1V882.4z"/>
		<path class="st6" d="M1398.5,870.5h12.3l1.8-47.3h-14.1L1398.5,870.5z"/>
		<path class="st8" d="M1395.4,866.5h24.1l0,0c2,0,4,0.4,5.9,1.2c1.9,0.8,3.6,1.9,5,3.3c1.4,1.4,2.6,3.1,3.3,5s1.2,3.9,1.2,5.9v0.5
			h-39.5V866.5z"/>
		<path class="st8" d="M1398.8,864.5c-1,0-2-0.4-2.8-1c-0.8-0.6-1.4-1.5-1.6-2.5L1364,728.4c-0.1-0.3-0.2-0.6-0.5-0.9
			c-0.3-0.2-0.6-0.3-0.9-0.3l0,0c-0.4,0-0.7,0.1-1,0.3c-0.3,0.2-0.4,0.5-0.5,0.9L1333.2,860c-0.2,1-0.8,1.9-1.6,2.6
			c-0.8,0.6-1.8,1-2.8,1h-13.3c-0.6,0-1.2-0.1-1.8-0.4c-0.6-0.2-1.1-0.6-1.5-1c-0.4-0.5-0.7-1-0.9-1.6c-0.2-0.6-0.3-1.2-0.3-1.8
			l9.9-166.9l4-1.2l0.1,0l78.3,0.7l16.7,166.7c0.1,0.6,0,1.2-0.2,1.8c-0.2,0.6-0.5,1.1-0.8,1.6c-0.4,0.5-0.8,0.8-1.4,1.1
			c-0.5,0.3-1.1,0.4-1.7,0.5l-16.6,1.3C1399.1,864.4,1398.9,864.5,1398.8,864.5z"/>
		<path class="st6" d="M1366.5,538.1c13.6,0,24.6-11,24.6-24.6c0-13.6-11-24.6-24.6-24.6c-13.6,0-24.6,11-24.6,24.6
			C1341.9,527.1,1352.9,538.1,1366.5,538.1z"/>
		<path class="st3" d="M1351.4,710.3c-4.3,0.1-8.6-0.6-12.7-1.8c-3.7-1.1-7.1-3-10-5.4c-2.9-2.5-5.3-5.5-7-8.9
			c-0.5-1-0.7-2.2-0.3-3.4c2.7-9.2,15.8-57.3,7.5-95.5c-1.2-5.3-1.3-10.8-0.3-16.1s3.1-10.4,6.1-15c2.9-4.5,6.7-8.4,11.2-11.4
			c4.4-3,9.5-5.1,14.7-6.1v0c1.4-0.3,2.8-0.5,4.1-0.7c5.8-0.7,11.7-0.1,17.3,1.7c5.6,1.8,10.7,4.9,14.9,8.9c4.4,4.1,7.8,9.2,10,14.7
			c2.2,5.6,3.2,11.6,2.8,17.6l-6.4,103c-0.1,0.8-0.3,1.5-0.7,2.2c-0.4,0.6-1,1.2-1.7,1.5C1393.5,699.6,1371.3,710.3,1351.4,710.3z"
			/>
		<path class="st8" d="M1394.2,495.4c-2.6-6.4-7.2-11.8-13.2-15.1c-6-3.4-13-4.6-19.8-3.4l7.7,6.3c-9.6,0.3-19.8-0.4-26.6,6.4
			c2.2-0.1,5,4.6,7.2,4.6c-4.1,0.1-7.8,3-9.6,6.6c-1.7,3.8-2.1,8-1.1,12c0.8,4,7,13.4,8.6,17.1c-0.3-9.8,19-33.1,28.3-30.6
			c-4.8,1.8-8.9,4.9-11.9,9c6.4-3.2,13.6-4.4,20.7-3.4c1.6,0.4,3.3,0.5,4.9,0.3c1-0.2,1.9-0.7,2.7-1.3c0.8-0.7,1.4-1.5,1.8-2.5
			s0.5-2,0.3-3c-0.2-1-0.6-2-1.2-2.8L1394.2,495.4z"/>
		<path class="st9" d="M1349.8,704.1c-0.6,0-1.2-0.1-1.8-0.4l-46.6-20.3c-1-0.4-1.8-1.2-2.3-2.2c-0.5-1-0.6-2.1-0.3-3.1l30.8-116.5
			c0.6-2.2,1.6-4.2,2.9-6s3.1-3.3,5-4.4c1.9-1.1,4.1-1.8,6.3-2.1c2.2-0.3,4.5-0.1,6.6,0.5l12.3,3.5l-8.7,146.7
			c-0.1,0.7-0.3,1.4-0.6,2c-0.4,0.6-0.9,1.1-1.5,1.5C1351.4,703.9,1350.6,704.1,1349.8,704.1L1349.8,704.1z"/>
		<path class="st9" d="M1436,678.1l-2.1-7.7l-3-11.2l-1.4-5.4l-3-11.2l-21.4-81c-0.6-2.2-1.6-4.2-2.9-6s-3.1-3.3-5-4.4
			c-2-1.1-4.1-1.8-6.3-2.1c-2.2-0.3-4.5-0.1-6.6,0.5l-12.3,3.5l6.1,103.2l0.6,10.8l0.4,6.8v0l0.6,10.7l0.9,15.2
			c0.1,1.1,0.6,2.2,1.4,3c0.8,0.8,1.9,1.2,3.1,1.2c0.6,0,1.2-0.1,1.8-0.4l46.6-20.3c1-0.4,1.8-1.2,2.3-2.2
			C1436.2,680.3,1436.3,679.1,1436,678.1L1436,678.1z"/>
		<path class="st2" d="M1429.6,653.7l-50.9,13.4l-0.6-10.8l48.6-13.8L1429.6,653.7z"/>
		<path class="st2" d="M1433.9,670.4l-54.3,14.3l-0.6-10.7v0l52-14.8L1433.9,670.4z"/>
		<path class="st2" d="M1356.2,658.7l-0.6,10.6l-50-14.9l2.9-11.1L1356.2,658.7z"/>
		<path class="st2" d="M1355.1,676.2l-51-16.5l-2.9,11.1l53.3,15.9L1355.1,676.2z"/>
		<path class="st6" d="M1305.1,687.3c1.5-0.4,2.9-1.1,4.1-2.1c1.2-1,2.2-2.3,2.9-3.7c0.7-1.4,1-3,1-4.5c0-1.6-0.3-3.1-1-4.5l24-75.2
			l-17-3.6l-22,73.8c-2.3,1.3-4.1,3.3-5,5.8c-0.9,2.5-0.8,5.2,0.1,7.7c1,2.5,2.8,4.5,5.2,5.7
			C1299.8,687.7,1302.5,687.9,1305.1,687.3L1305.1,687.3z"/>
		<path class="st3" d="M1336.7,560.2c4.9,0.5,7.6,6,6.4,12.8l-5.8,32.8c-0.4,2.5-2.5,4.4-4.1,4l-19.7-4.9c-1.5-0.4-2.1-2.5-1.2-4.7
			l11.8-29.7C1326.7,564,1332,559.7,1336.7,560.2z"/>
		<path class="st9" d="M1366.4,467.6c8.3,0,16.3,3.2,22.3,9c6,5.8,9.4,13.7,9.7,22h6c0.5,0,1,0.2,1.4,0.6c0.4,0.4,0.6,0.9,0.6,1.4v8
			c0,0.5-0.2,1-0.6,1.4c-0.4,0.4-0.9,0.6-1.4,0.6h-68c-0.5,0-1-0.2-1.4-0.6c-0.4-0.4-0.6-0.9-0.6-1.4v-9c0-4.2,0.8-8.4,2.4-12.2
			c1.6-3.9,4-7.4,6.9-10.4c3-3,6.5-5.3,10.4-6.9C1358,468.4,1362.2,467.6,1366.4,467.6z"/>
		<path class="st4" d="M1370.2,665.4h-14.1c-0.4,0-0.9-0.2-1.2-0.5c-0.3-0.3-0.5-0.7-0.6-1.2l-2.8-29h23.4l-2.8,29
			c0,0.5-0.2,0.9-0.6,1.2C1371.1,665.2,1370.7,665.4,1370.2,665.4L1370.2,665.4z"/>
		<path class="st2" d="M1374.8,638.4h-23.3c-0.5,0-0.9-0.2-1.3-0.5c-0.3-0.3-0.5-0.8-0.5-1.3v-4.4c0-0.5,0.2-0.9,0.5-1.3
			c0.3-0.3,0.8-0.5,1.3-0.5h23.3c0.5,0,1,0.2,1.3,0.5c0.3,0.3,0.5,0.8,0.5,1.3v4.4c0,0.5-0.2,0.9-0.5,1.3
			C1375.8,638.2,1375.3,638.4,1374.8,638.4L1374.8,638.4z"/>
		<path class="st6" d="M1363.5,649.8c0.6,0.1,1.1,0.2,1.6,0.3l37.6-32.3l-2.2-11.8l17.4-5.7l5.9,20.6c0.5,1.7,0.4,3.4-0.2,5.1
			c-0.6,1.6-1.7,3-3.2,3.9l-47.7,30.2c0,2.1-0.6,4.2-1.8,6c-1.2,1.8-2.9,3.1-4.9,3.9c-2,0.8-4.1,1-6.2,0.5c-2.1-0.5-4-1.6-5.4-3.2
			c-1.4-1.6-2.4-3.6-2.6-5.7c-0.3-2.1,0.1-4.3,1-6.2c1-1.9,2.5-3.5,4.4-4.5C1359.2,650,1361.3,649.6,1363.5,649.8L1363.5,649.8z"/>
		<path class="st3" d="M1402.8,562.9c5.2-1.5,10.4,2.5,12.2,9.3l8.4,32.4c0.6,2.4-0.6,5-2.5,5.3l-22.3,3.2c-1.7,0.2-3.2-1.5-3.3-3.8
			l-0.9-31.9C1394.2,570.4,1397.8,564.3,1402.8,562.9z"/>
		<path class="st2" d="M1702.7,770c-10.3-13.7-18.4-28.8-24.1-44.9c-0.3-1-0.3-2,0.1-3c0.4-0.9,1.1-1.7,2-2.2l35.1-18.8
			c0.6-0.3,1.2-0.5,1.8-0.5s1.3,0.1,1.9,0.4c0.6,0.3,1.1,0.7,1.6,1.2c0.4,0.5,0.7,1.1,0.9,1.7c4.1,15.5,11.8,29.9,22.5,41.9
			c0.4,0.5,0.8,1.1,0.9,1.7c0.2,0.6,0.2,1.3,0.1,2c-0.1,0.6-0.4,1.2-0.8,1.8c-0.4,0.5-0.9,1-1.4,1.3l-35.2,18.8
			c-0.9,0.5-1.9,0.6-2.9,0.4C1704.2,771.4,1703.3,770.8,1702.7,770L1702.7,770z"/>
		<path class="st5" d="M1705.1,768.2c0.2,0.2,0.5,0.4,0.8,0.5c0.3,0.1,0.6,0,0.9-0.1l35.1-18.8c0.2-0.1,0.3-0.2,0.4-0.4
			c0.1-0.2,0.2-0.3,0.2-0.5c0-0.2,0-0.4,0-0.6c0-0.2-0.2-0.4-0.3-0.5c-11-12.4-18.9-27.1-23.1-43.1c-0.1-0.2-0.1-0.4-0.3-0.5
			c-0.1-0.2-0.3-0.3-0.5-0.4c-0.2-0.1-0.4-0.1-0.6-0.1c-0.2,0-0.4,0.1-0.5,0.2l-35.1,18.8c-0.3,0.1-0.5,0.4-0.6,0.7
			c-0.1,0.3-0.1,0.6,0,0.9C1687,739.9,1695,754.8,1705.1,768.2L1705.1,768.2z"/>
		<path class="st2" d="M1718.1,728l-19.1,8.4c-0.7,0.3-1.6,0.3-2.3,0.1c-0.7-0.3-1.3-0.9-1.7-1.6l-0.5-1.1c-0.3-0.7-0.3-1.6-0.1-2.3
			c0.3-0.7,0.9-1.3,1.6-1.7l19.2-8.4c0.7-0.3,1.5-0.3,2.3-0.1c0.7,0.3,1.3,0.9,1.7,1.6l0.5,1.1c0.3,0.7,0.3,1.6,0.1,2.3
			C1719.4,727,1718.8,727.6,1718.1,728L1718.1,728z"/>
		<path class="st2" d="M1725.1,741l-19.1,8.4c-0.7,0.3-1.6,0.3-2.3,0.1c-0.7-0.3-1.3-0.9-1.7-1.6l-0.5-1.1c-0.3-0.7-0.3-1.6-0.1-2.3
			c0.3-0.7,0.9-1.3,1.6-1.7l19.2-8.4c0.7-0.3,1.5-0.3,2.3-0.1c0.7,0.3,1.3,0.9,1.7,1.6l0.5,1.1c0.3,0.7,0.3,1.5,0.1,2.3
			C1726.4,740,1725.8,740.6,1725.1,741L1725.1,741z"/>
		<path class="st10" d="M1680.2,730.1c-1.3-0.9-2.4-2-3.3-3.3c-0.8-1.3-1.4-2.8-1.6-4.4c-0.2-1.6,0-3.1,0.4-4.6
			c0.5-1.5,1.3-2.9,2.4-4l-8.1-114.6l23.3,2.3l0.6,112.2c1.8,1.9,2.9,4.4,2.9,7.1c0.1,2.6-0.8,5.2-2.5,7.3c-1.7,2-4.1,3.4-6.7,3.8
			C1685.1,732.2,1682.4,731.6,1680.2,730.1L1680.2,730.1z"/>
		<path class="st3" d="M1675.3,637.7c-0.6-0.4-1-0.9-1.3-1.5c-0.3-0.6-0.5-1.2-0.5-1.9l-1.7-30.9c-0.2-3.1,0.8-6.1,2.7-8.5
			c1.9-2.4,4.7-4,7.7-4.5c3-0.5,6.1,0.2,8.7,1.8c2.6,1.7,4.4,4.2,5.2,7.2l7.5,27.6c0.3,1.2,0.2,2.4-0.4,3.4c-0.6,1-1.6,1.8-2.7,2.1
			l-21.3,5.8c-0.7,0.2-1.3,0.2-2,0.1C1676.5,638.4,1675.8,638.1,1675.3,637.7L1675.3,637.7z"/>
		<path class="st10" d="M1635.7,871h-12.3l-5.8-47.3h18.1V871z"/>
		<path class="st8" d="M1614.7,867.5h23.6v14.9h-38.5c0-2,0.4-3.9,1.1-5.7c0.7-1.8,1.8-3.4,3.2-4.8c1.4-1.4,3-2.5,4.8-3.2
			C1610.8,867.8,1612.7,867.5,1614.7,867.5L1614.7,867.5z"/>
		<path class="st10" d="M1681.7,871h-12.3l-5.8-47.3h18.1V871z"/>
		<path class="st8" d="M1660.7,867.5h23.6v14.9h-38.5c0-2,0.4-3.9,1.1-5.7c0.7-1.8,1.8-3.4,3.2-4.8c1.4-1.4,3-2.5,4.8-3.2
			C1656.8,867.8,1658.7,867.5,1660.7,867.5z"/>
		<path class="st8" d="M1635.1,847.1l-13.5-0.7c-1.2,0-2.2-0.5-3-1.4c-0.8-0.8-1.2-1.9-1.3-3.1c-3.6-54.9-8.5-113.8-0.9-136.6
			c0-0.6,0.1-1.3,0.4-1.9s0.7-1.1,1.2-1.5c0.5-0.4,1.1-0.7,1.7-0.9c0.6-0.2,1.3-0.2,1.9-0.1l54,7.8c1.1,0.1,2.1,0.7,2.8,1.5
			c0.7,0.8,1.1,1.9,1.1,2.9c6.9,26.9,7.2,75.8,6.9,126.5c0,0.6-0.1,1.2-0.3,1.7c-0.2,0.6-0.6,1.1-1,1.5c-0.4,0.4-0.9,0.8-1.5,1
			c-0.6,0.2-1.1,0.3-1.7,0.3h-14.6c-1.1,0-2.1-0.4-2.9-1.1c-0.8-0.7-1.3-1.7-1.5-2.7l-9-57.1c-0.1-0.8-0.6-1.6-1.2-2.1
			c-0.7-0.6-1.5-0.8-2.3-0.8c-0.8,0-1.7,0.3-2.3,0.9c-0.6,0.6-1,1.3-1.1,2.2l-7.1,59.6c-0.1,1.1-0.7,2.1-1.5,2.8
			c-0.8,0.7-1.9,1.1-3,1.1C1635.2,847.1,1635.2,847.1,1635.1,847.1z"/>
		<path class="st3" d="M1644.6,713.3c-11.9-6.6-21.2-8.3-25.7-8.8c-0.6-0.1-1.2-0.2-1.7-0.5c-0.5-0.3-1-0.7-1.4-1.2
			c-0.4-0.5-0.7-1-0.8-1.6c-0.2-0.6-0.2-1.2-0.1-1.8l12.9-96c0.8-5.6,2.9-11,6.3-15.5c3.4-4.5,7.9-8.1,13.1-10.5
			c5-2.3,10.5-3.3,16-2.9c5.5,0.4,10.8,2.3,15.4,5.3c0.4,0.3,0.9,0.6,1.3,0.9c5.3,3.9,9.3,9.2,11.6,15.4c2.2,6.2,2.6,12.8,1.1,19.2
			c-7.9,32.5-10.7,85.7-11.1,96c0,0.9-0.3,1.7-0.9,2.4c-0.5,0.7-1.2,1.3-2.1,1.6c-4.9,1.8-10,2.7-15.2,2.7
			C1656.8,718.1,1650.3,716.4,1644.6,713.3z"/>
		<path class="st10" d="M1655.4,564.3c13.6,0,24.6-11,24.6-24.6c0-13.6-11-24.6-24.6-24.6c-13.6,0-24.6,11-24.6,24.6
			C1630.9,553.3,1641.8,564.3,1655.4,564.3z"/>
		<path class="st8" d="M1672.8,559.2c-4.6,4.9-13.1,2.3-13.7-4.4c0-0.5,0-1,0-1.6c0.3-3,2-5.6,1.6-8.8c-0.1-0.8-0.4-1.5-0.8-2.1
			c-3.7-4.9-12.2,2.2-15.7-2.2c-2.1-2.7,0.4-7-1.2-10c-2.1-4-8.5-2-12.4-4.2c-4.4-2.4-4.2-9.2-1.2-13.4c3.5-5,9.8-7.7,15.9-8.1
			c6.2-0.4,12.2,1.3,18,3.5c6.5,2.5,13,6.1,17,11.8c4.9,7,5.3,16.3,2.9,24.5C1681.6,549.2,1676.5,555.2,1672.8,559.2z"/>
		<path class="st9" d="M1692.2,583.1c-0.4-2-4.1-4.8-9.4-7c-8.5-3.4-17.7-4.8-26.8-4c-9.1,0.8-17.9,3.7-25.7,8.5
			c-0.5,0-1.1,0.2-1.5,0.6c-0.4,0.4-0.7,0.8-0.8,1.4l-17.8,78.5l-2.3,10.2l-1.5,6.8l-2.3,10.2l-1.2,5.5c-0.1,0.3-0.1,0.7,0,1.1
			c0.1,0.4,0.2,0.7,0.4,1c0.2,0.3,0.5,0.5,0.8,0.7c0.3,0.2,0.7,0.3,1,0.3l76.7,6.6c0.1,0,0.2,0,0.2,0c0.6,0,1.2-0.2,1.7-0.7
			c0.5-0.4,0.7-1,0.8-1.7l0.7-11.1l0.8-11.9l0.3-5.2l0.8-11.8l5.1-77.8L1692.2,583.1L1692.2,583.1z"/>
		<path class="st10" d="M1566.4,588c0.1,0.5,0.2,1.1,0.2,1.6l42.9,24.8l10.4-6l11.1,14.6l-22.3,15.9l-49-38.7
			c-2,0.7-4.2,0.9-6.2,0.3c-2.1-0.5-3.9-1.7-5.3-3.3c-1.4-1.6-2.3-3.6-2.5-5.7c-0.2-2.1,0.2-4.3,1.2-6.1c1-1.9,2.6-3.4,4.5-4.4
			c1.9-1,4-1.3,6.2-1.1c2.1,0.3,4.1,1.2,5.7,2.6C1564.8,584.1,1565.9,586,1566.4,588L1566.4,588z"/>
		<path class="st3" d="M1611.2,612.3c-0.1-0.7,0-1.3,0.2-2c0.2-0.6,0.6-1.2,1.1-1.7l21.9-21.9c2.2-2.2,5.1-3.5,8.1-3.6
			c3.1-0.2,6.1,0.8,8.4,2.7c2.4,1.9,4,4.7,4.4,7.7c0.5,3-0.2,6.1-1.8,8.7l-15.6,24c-0.7,1-1.7,1.7-2.8,1.9c-1.2,0.2-2.4,0-3.4-0.6
			l-18.5-12c-0.6-0.4-1-0.8-1.4-1.4C1611.4,613.7,1611.2,613,1611.2,612.3z"/>
		<path class="st2" d="M1687.2,661.1l-0.8,11.8l-78.4-1.6l2.3-10.2H1687.2z"/>
		<path class="st2" d="M1686,678.1l-0.8,11.9l-81.1-1.7l2.3-10.2H1686z"/>
		<path class="st9" d="M1655.9,492.1c-8.3,0-16.3,3.2-22.3,9c-6,5.8-9.4,13.7-9.7,22h-6c-0.5,0-1,0.2-1.4,0.6
			c-0.4,0.4-0.6,0.9-0.6,1.4v8c0,0.5,0.2,1,0.6,1.4c0.4,0.4,0.9,0.6,1.4,0.6h68c0.5,0,1-0.2,1.4-0.6c0.4-0.4,0.6-0.9,0.6-1.4v-9
			c0-4.2-0.8-8.4-2.4-12.2c-1.6-3.9-4-7.4-6.9-10.4c-3-3-6.5-5.3-10.4-6.9C1664.3,492.9,1660.1,492.1,1655.9,492.1L1655.9,492.1z"/>
		<path class="st2" d="M1790.7,884.1h-712c-0.3,0-0.5-0.1-0.7-0.3c-0.2-0.2-0.3-0.4-0.3-0.7s0.1-0.5,0.3-0.7
			c0.2-0.2,0.4-0.3,0.7-0.3h712c0.3,0,0.5,0.1,0.7,0.3c0.2,0.2,0.3,0.4,0.3,0.7s-0.1,0.5-0.3,0.7
			C1791.2,883.9,1791,884.1,1790.7,884.1z"/>
	</g>
</g>
<g>
	<path class="st3" d="M1267.9,320.3c-1.4,0-2.8-0.2-4.2-0.5l-0.3-0.1l-0.2-0.1c-9-4.5-16.6-10.5-22.6-17.7
		c-4.9-6-8.8-12.9-11.4-20.2c-3.1-8.8-4.6-18.1-4.4-27.4c0-0.2,0-0.3,0-0.5c0-4.5,2.5-8.5,6.4-10.1c3-1.2,30.1-12.4,32-13.2
		c3.7-1.8,7.6-0.3,8.2,0c1.4,0.6,26.4,10.8,31.9,13.4c5.6,2.7,7.1,7.4,7.1,9.8c0,10.9-1.9,21-5.6,30.2c-3,7.4-7.2,14.3-12.6,20.3
		c-10.3,11.5-20.5,15.6-20.6,15.7C1270.5,320.1,1269.2,320.3,1267.9,320.3z M1265.5,314.3c0.9,0.2,2.9,0.5,4.3,0
		c1.7-0.6,10.3-5.1,18.3-14.1c11.1-12.5,16.7-28.2,16.7-46.6c0-0.4-0.3-3-3.8-4.7c-5.3-2.5-31.3-13.2-31.6-13.3l-0.1,0
		c-0.5-0.2-2.3-0.7-3.5-0.1l-0.2,0.1c-0.3,0.1-29,11.9-32.1,13.2c-2.1,0.9-2.9,3.1-2.9,4.9c0,0.1,0,0.3,0,0.6
		C1230.3,266.9,1233.3,298,1265.5,314.3z"/>
	<path class="st9" d="M1264.5,233c0,0-29,11.9-32.1,13.2c-3.1,1.3-4.7,4.4-4.7,7.5c0,3.1-2.3,43.7,36.8,63.3c0,0,3.5,1,6.2,0
		c2.7-1,36.9-17.6,36.9-63.4c0,0,0-4.7-5.4-7.3c-5.4-2.6-31.7-13.3-31.7-13.3S1267.3,231.5,1264.5,233z"/>
	<path class="st15" d="M1267.6,242.3v63.6c0,0-29.3-14.1-29-51.2L1267.6,242.3z"/>
	<path class="st5" d="M1268,288l-9.3-12l5.4-4.2l4.4,5.7l14.9-15.8l5,4.7L1268,288z"/>
</g>
<g>
	<path class="st15" d="M322.4,551.3h-8.9v-17.2c0-19.4-15.5-35.6-34.9-35.9c-4.7,0-9.3,0.8-13.7,2.6c-4.3,1.8-8.3,4.4-11.6,7.6
		c-3.3,3.3-6,7.2-7.8,11.5c-1.8,4.3-2.8,9-2.8,13.6v17.7h-8.8c-3.9,0-7.7,1.6-10.4,4.3c-2.8,2.8-4.3,6.5-4.3,10.4v70.8
		c0,3.9,1.6,7.7,4.3,10.4c2.8,2.8,6.5,4.3,10.4,4.3h88.5c3.9,0,7.6-1.6,10.4-4.3c2.8-2.8,4.3-6.5,4.3-10.4V566
		c0-3.9-1.6-7.6-4.3-10.4C330,552.8,326.3,551.3,322.4,551.3z M283.3,597.3v25.3c0,1.3-0.5,2.6-1.4,3.6c-0.9,1-2.2,1.6-3.5,1.7
		c-0.7,0-1.4-0.1-2.1-0.3c-0.7-0.2-1.3-0.6-1.8-1.1c-0.5-0.5-0.9-1.1-1.2-1.7c-0.3-0.6-0.4-1.3-0.4-2v-25.5
		c-2.4-1.2-4.3-3.1-5.5-5.5c-1.1-2.4-1.4-5.1-0.8-7.7c0.6-2.6,2.1-4.9,4.1-6.6c2.1-1.7,4.7-2.6,7.3-2.6s5.2,0.9,7.3,2.6
		c2.1,1.7,3.5,4,4.1,6.6c0.6,2.6,0.3,5.3-0.8,7.7C287.6,594.1,285.7,596.1,283.3,597.3L283.3,597.3z M303.2,551.3h-50.1v-17.7
		c0-6.6,2.6-13,7.3-17.7c4.7-4.7,11.1-7.3,17.7-7.3s13,2.6,17.7,7.3c4.7,4.7,7.3,11.1,7.3,17.7L303.2,551.3z"/>
	<path class="st9" d="M327.6,551.3h-8.9v-17.2c0-19.4-15.5-35.6-34.9-35.9c-4.7,0-9.3,0.8-13.7,2.6c-4.3,1.8-8.3,4.4-11.6,7.6
		c-3.3,3.3-6,7.2-7.8,11.5c-1.8,4.3-2.8,9-2.8,13.6v17.7h-8.8c-3.9,0-7.7,1.6-10.4,4.3c-2.8,2.8-4.3,6.5-4.3,10.4v70.8
		c0,3.9,1.6,7.7,4.3,10.4c2.8,2.8,6.5,4.3,10.4,4.3h88.5c3.9,0,7.6-1.6,10.4-4.3c2.8-2.8,4.3-6.5,4.3-10.4V566
		c0-3.9-1.6-7.6-4.3-10.4C335.3,552.8,331.5,551.3,327.6,551.3L327.6,551.3z M288.5,597.3v25.3c0,1.3-0.5,2.6-1.4,3.6
		c-0.9,1-2.2,1.6-3.5,1.7c-0.7,0-1.4-0.1-2.1-0.3c-0.7-0.2-1.3-0.6-1.8-1.1c-0.5-0.5-0.9-1.1-1.2-1.7c-0.3-0.6-0.4-1.3-0.4-2v-25.5
		c-2.4-1.2-4.3-3.1-5.5-5.5c-1.1-2.4-1.4-5.1-0.8-7.7c0.6-2.6,2.1-4.9,4.1-6.6c2.1-1.7,4.7-2.6,7.3-2.6s5.2,0.9,7.3,2.6
		c2.1,1.7,3.5,4,4.1,6.6c0.6,2.6,0.3,5.3-0.8,7.7C292.9,594.1,290.9,596.1,288.5,597.3L288.5,597.3z M308.4,551.3h-50.1v-17.7
		c0-6.6,2.6-13,7.3-17.7c4.7-4.7,11.1-7.3,17.7-7.3c6.6,0,13,2.6,17.7,7.3c4.7,4.7,7.3,11.1,7.3,17.7L308.4,551.3z"/>
</g>
</svg>
